<svg width="112" height="27" viewBox="0 0 112 27" fill="none" xmlns="http://www.w3.org/2000/svg">
<path d="M7.50855 26.8087C6.1699 26.8087 5.055 26.6572 4.16257 26.3554C2.70004 25.8521 1.64076 25.0779 0.984707 24.0327C0.327393 22.9888 0 21.5212 0 19.6337V14.8007C0 12.3084 0.644673 10.4145 1.93276 9.1177C3.22084 7.82214 4.88182 7.17372 6.91444 7.17372C8.52486 7.17372 10.1858 7.5769 11.8961 8.38197L11.1529 10.534C9.73962 9.98055 8.47682 9.70321 7.36065 9.70321C5.94869 9.70321 4.81483 10.1128 3.95905 10.9307C3.10454 11.7486 2.67603 12.9633 2.67603 14.5747V20.0497C2.67603 21.5353 3.15258 22.6113 4.10695 23.2777C5.06132 23.9454 6.28114 24.2779 7.76895 24.2779C8.93315 24.2779 10.1226 24.1148 11.3374 23.7874L11.9694 26.2039C10.4323 26.6058 8.94579 26.8087 7.50855 26.8087Z" fill="currentColor"/>
<path d="M21.6711 26.8459C19.0697 26.8459 16.9992 26.3554 15.4633 25.3732C13.9262 24.3922 13.1589 22.6164 13.1589 20.0497V16.9154C13.1589 14.4232 14.0134 12.7501 15.7237 11.8937C16.5416 11.4918 17.5452 11.289 18.7347 11.289C19.8256 11.289 20.9279 11.4584 22.0428 11.7987C23.1577 12.139 24.0741 12.573 24.7934 13.102C24.7934 10.5096 23.0464 9.21272 19.5526 9.21272L19.7384 7.21096C22.1174 7.21096 23.8706 7.59487 24.9982 8.36271C26.1257 9.13054 26.8197 10.0435 27.0801 11.1002C27.3405 12.1569 27.4707 13.5167 27.4707 15.1782V26.4299C24.7946 26.7072 22.8606 26.8459 21.6711 26.8459ZM21.9315 14.4039C20.8912 14.0637 19.9368 13.8942 19.0697 13.8942C16.9132 13.8942 15.8362 14.9766 15.8362 17.1414V20.0869C15.8362 22.9567 17.769 24.3909 21.6357 24.3909C22.403 24.3909 23.4573 24.3023 24.7959 24.1264V15.5544C23.9288 15.1268 22.9744 14.7429 21.9341 14.4027L21.9315 14.4039Z" fill="currentColor"/>
<path d="M33.0085 23.6937C33.8264 24.2099 34.7934 24.468 35.9083 24.468C36.9246 24.468 37.8221 24.2227 38.6033 23.7309C39.3832 23.2404 39.7738 22.5034 39.7738 21.5225C39.7738 20.8432 39.5817 20.277 39.1974 19.8237C38.8131 19.3705 38.3303 19.0122 37.7475 18.7477C37.1648 18.4832 36.3659 18.1751 35.3496 17.8232C34.1348 17.3957 33.1615 17.0117 32.4309 16.6715C31.699 16.3312 31.0556 15.8343 30.4981 15.1795C29.9407 14.5246 29.5994 13.6823 29.4755 12.65L29.4388 12.1967C29.4388 11.366 29.6676 10.5545 30.1265 9.76099C30.5853 8.96747 31.2907 8.32033 32.2451 7.81572C33.1994 7.31239 34.3952 7.06073 35.8325 7.06073C36.625 7.06073 37.3253 7.1429 37.9333 7.30597C38.5401 7.47032 39.0166 7.63981 39.3643 7.81572C39.7106 7.99163 39.9217 8.10591 39.9963 8.15599L39.1418 10.5352C39.0672 10.4852 38.9004 10.3837 38.64 10.2335C38.3796 10.082 38.0016 9.93818 37.5061 9.79951C37.0106 9.66083 36.4531 9.5915 35.8337 9.5915C34.6683 9.5915 33.7518 9.856 33.0831 10.385C32.4144 10.914 32.1288 11.6305 32.2286 12.537C32.3032 13.2162 32.6685 13.7517 33.3246 14.142C33.9806 14.5323 34.9792 14.9663 36.3166 15.4453C37.63 15.8985 38.7019 16.3325 39.5324 16.7485C40.3629 17.1633 41.0682 17.7552 41.651 18.523C42.2324 19.2909 42.5244 20.2924 42.5244 21.525C42.5244 23.0864 41.967 24.3883 40.8521 25.4335C39.7372 26.4774 38.0888 27 35.9083 27C34.4951 27 33.2753 26.7548 32.2463 26.263C31.2174 25.7725 30.4374 25.1241 29.904 24.319C29.3706 23.5139 29.0798 22.6203 29.0305 21.638L31.6332 21.525C31.7318 22.4572 32.1907 23.1801 33.0085 23.6963V23.6937Z" fill="currentColor"/>
<path d="M56.0196 13.8955C56.0196 12.4099 55.6227 11.3403 54.8301 10.6855C54.0363 10.0306 53.0212 9.70321 51.7824 9.70321C51.0632 9.70321 50.3326 9.80464 49.5893 10.0049C48.846 10.2065 48.2013 10.471 47.6565 10.7985V26.4312H44.9805V0H47.6565V8.26897C48.1773 7.94155 48.8271 7.68347 49.6083 7.49472C50.3894 7.30597 51.201 7.21096 52.0428 7.21096C53.4561 7.21096 54.6203 7.43694 55.5367 7.8902C56.5277 8.34345 57.3026 9.02269 57.8601 9.92919C58.4175 10.8357 58.6969 11.981 58.6969 13.3652V26.4299H56.0209V13.8942L56.0196 13.8955Z" fill="currentColor"/>
<path d="M62.7103 0H65.3863V26.4312H62.7103V0Z" fill="orange"/>
<path d="M77.9499 26.4312C76.8097 26.7329 75.6695 26.8844 74.5306 26.8844C72.6964 26.8844 71.2402 26.4248 70.1632 25.5067C69.085 24.5886 68.5465 23.2096 68.5465 21.3722V13.631C68.5465 11.592 69.1722 10.0062 70.4236 8.87374C71.675 7.74125 73.3284 7.17501 75.3863 7.17501C77.4442 7.17501 79.0483 7.73611 80.1999 8.85576C81.3527 9.9767 81.9292 11.5303 81.9292 13.5193V18.6925L71.2238 19.2588V21.222C71.2238 22.2787 71.5448 23.0722 72.1895 23.6013C72.8342 24.1303 73.714 24.3948 74.8289 24.3948C76.4393 24.3948 78.1622 23.8914 79.9964 22.8848L81.0001 25.1125C80.1076 25.6916 79.0913 26.132 77.9524 26.4338L77.9499 26.4312ZM77.9865 10.516C77.1687 9.94973 76.2889 9.66597 75.3472 9.66597C74.1071 9.66597 73.1098 10.0062 72.3551 10.6855C71.5992 11.3647 71.2213 12.3598 71.2213 13.6682V16.6895L79.2139 16.2747V13.3678C79.2139 12.0337 78.8044 11.0835 77.9865 10.5173V10.516Z" fill="currentColor"/>
<path d="M87.5783 23.6937C88.3961 24.2099 89.3631 24.468 90.478 24.468C91.4943 24.468 92.3918 24.2227 93.173 23.7309C93.9529 23.2404 94.3435 22.5034 94.3435 21.5225C94.3435 20.8432 94.1514 20.277 93.7671 19.8237C93.3829 19.3705 92.9 19.0122 92.3172 18.7477C91.7345 18.4832 90.9356 18.1751 89.9193 17.8232C88.7045 17.3957 87.7312 17.0117 87.0006 16.6715C86.2687 16.3312 85.6253 15.8343 85.0678 15.1795C84.5104 14.5246 84.1691 13.6823 84.0452 12.65L84.0085 12.1967C84.0085 11.366 84.2373 10.5545 84.6962 9.76099C85.155 8.96747 85.8604 8.32033 86.8148 7.81572C87.7691 7.31239 88.9649 7.06073 90.4022 7.06073C91.1947 7.06073 91.895 7.1429 92.5031 7.30597C93.1098 7.47032 93.5864 7.63981 93.934 7.81572C94.2803 7.99163 94.4914 8.10591 94.566 8.15599L93.7115 10.5352C93.6369 10.4852 93.4701 10.3837 93.2097 10.2335C92.9493 10.082 92.5713 9.93818 92.0758 9.79951C91.5803 9.66083 91.0228 9.5915 90.4035 9.5915C89.238 9.5915 88.3215 9.856 87.6528 10.385C86.9841 10.914 86.6985 11.6305 86.7983 12.537C86.8729 13.2162 87.2382 13.7517 87.8943 14.142C88.5503 14.5323 89.5489 14.9663 90.8863 15.4453C92.1997 15.8985 93.2716 16.3325 94.1021 16.7485C94.9326 17.1633 95.6379 17.7552 96.2207 18.523C96.8021 19.2909 97.0941 20.2924 97.0941 21.525C97.0941 23.0864 96.5367 24.3883 95.4218 25.4335C94.3069 26.4774 92.6585 27 90.478 27C89.0648 27 87.845 26.7548 86.816 26.263C85.7871 25.7725 85.0071 25.1241 84.4737 24.319C83.9403 23.5139 83.6495 22.6203 83.6002 21.638L86.203 21.525C86.3016 22.4572 86.7604 23.1801 87.5783 23.6963V23.6937Z" fill="currentColor"/>
<path d="M102.484 23.6937C103.302 24.2099 104.269 24.468 105.384 24.468C106.4 24.468 107.298 24.2227 108.079 23.7309C108.859 23.2404 109.249 22.5034 109.249 21.5225C109.249 20.8432 109.057 20.277 108.673 19.8237C108.289 19.3705 107.806 19.0122 107.223 18.7477C106.64 18.4832 105.841 18.1751 104.825 17.8232C103.61 17.3957 102.637 17.0117 101.906 16.6715C101.175 16.3312 100.531 15.8343 99.9737 15.1795C99.4162 14.5246 99.0749 13.6823 98.9511 12.65L98.9144 12.1967C98.9144 11.366 99.1432 10.5545 99.6021 9.76099C100.061 8.96747 100.766 8.32033 101.721 7.81572C102.675 7.31239 103.871 7.06073 105.308 7.06073C106.101 7.06073 106.801 7.1429 107.409 7.30597C108.016 7.47032 108.492 7.63981 108.84 7.81572C109.186 7.99163 109.397 8.10591 109.472 8.15599L108.617 10.5352C108.543 10.4852 108.376 10.3837 108.116 10.2335C107.855 10.082 107.477 9.93818 106.982 9.79951C106.486 9.66083 105.929 9.5915 105.309 9.5915C104.144 9.5915 103.227 9.856 102.559 10.385C101.89 10.914 101.604 11.6305 101.704 12.537C101.779 13.2162 102.144 13.7517 102.8 14.142C103.456 14.5323 104.455 14.9663 105.792 15.4453C107.106 15.8985 108.177 16.3325 109.008 16.7485C109.838 17.1633 110.544 17.7552 111.127 18.523C111.708 19.2909 112 20.2924 112 21.525C112 23.0864 111.443 24.3883 110.328 25.4335C109.213 26.4787 107.564 27 105.384 27C103.971 27 102.751 26.7548 101.722 26.263C100.693 25.7725 99.913 25.1241 99.3796 24.319C98.8461 23.5139 98.5554 22.6203 98.5061 21.638L101.109 21.525C101.207 22.4572 101.666 23.1801 102.484 23.6963V23.6937Z" fill="currentColor"/>
</svg>
