<?xml version="1.0" standalone="no"?>
<!DOCTYPE svg PUBLIC "-//W3C//DTD SVG 20010904//EN"
 "http://www.w3.org/TR/2001/REC-SVG-20010904/DTD/svg10.dtd">
<svg version="1.0" xmlns="http://www.w3.org/2000/svg"
 width="600.000000pt" height="600.000000pt" viewBox="0 0 600.000000 600.000000"
 preserveAspectRatio="xMidYMid meet">

<g transform="translate(0.000000,600.000000) scale(0.100000,-0.100000)"
fill="#000000" stroke="none">
<path d="M3309 4653 c-13 -16 -12 -17 4 -4 9 7 17 15 17 17 0 8 -8 3 -21 -13z"/>
<path d="M3339 4633 c-13 -16 -12 -17 4 -4 9 7 17 15 17 17 0 8 -8 3 -21 -13z"/>
<path d="M3525 4544 c-9 -15 -12 -23 -6 -20 11 7 35 46 28 46 -3 0 -12 -12
-22 -26z"/>
<path d="M3620 4516 c0 -2 7 -7 16 -10 8 -3 12 -2 9 4 -6 10 -25 14 -25 6z"/>
<path d="M3675 4434 c-9 -15 -12 -23 -6 -20 11 7 35 46 28 46 -3 0 -12 -12
-22 -26z"/>
<path d="M3704 4428 l-29 -33 31 28 c17 15 34 24 39 20 4 -5 5 -2 1 5 -9 16
-8 17 -42 -20z"/>
<path d="M3789 4417 c6 -8 7 -18 3 -22 -4 -5 -1 -5 6 -1 10 6 10 11 1 22 -6 8
-14 14 -16 14 -3 0 0 -6 6 -13z"/>
<path d="M3759 4393 c-13 -16 -12 -17 4 -4 16 13 21 21 13 21 -2 0 -10 -8 -17
-17z"/>
<path d="M3815 4360 c-10 -11 -16 -22 -14 -24 2 -2 12 7 22 20 22 29 17 32 -8
4z"/>
<path d="M3894 4342 c-9 -14 -8 -18 6 -18 11 0 15 6 12 18 -2 10 -5 18 -6 18
-1 0 -6 -8 -12 -18z"/>
<path d="M3917 4286 c-17 -13 -17 -14 0 -20 10 -4 14 -4 10 0 -4 4 -2 13 4 21
14 17 9 16 -14 -1z"/>
<path d="M3961 4278 c5 -10 11 -18 12 -18 2 0 3 8 3 18 0 10 -6 19 -13 19 -8
0 -9 -6 -2 -19z"/>
<path d="M4000 4295 c-1 -5 -3 -18 -5 -28 -3 -18 -3 -18 16 -1 20 18 26 29 10
20 -5 -4 -12 0 -14 6 -3 7 -6 9 -7 3z"/>
<path d="M4014 4247 l-29 -32 33 29 c32 30 45 27 17 -4 -13 -14 -12 -16 3 -16
12 0 18 8 17 22 0 36 -10 36 -41 1z"/>
<path d="M4098 4233 c14 -25 -3 -54 -26 -47 -14 5 -15 4 -2 -5 11 -7 19 -6 32
6 19 17 25 4 7 -14 -8 -8 -5 -14 11 -23 19 -10 26 -8 46 11 28 26 32 15 7 -15
-16 -18 -15 -18 11 2 15 12 33 19 39 15 6 -3 7 -1 3 6 -4 6 -12 9 -17 6 -5 -4
-9 -2 -9 2 0 5 -10 14 -22 22 -20 13 -22 12 -11 -1 11 -12 10 -18 -6 -32 -23
-21 -58 -11 -40 11 9 10 14 11 19 2 6 -8 9 -8 14 0 4 6 2 11 -4 11 -7 0 -9 7
-6 16 6 15 4 15 -11 3 -15 -12 -16 -12 -10 3 4 12 0 21 -14 29 -18 9 -19 8
-11 -8z"/>
<path d="M4036 4198 c3 -4 11 -5 19 -1 21 7 19 12 -4 10 -11 0 -18 -5 -15 -9z"/>
<path d="M4227 4136 c-17 -20 -18 -20 -13 -1 6 19 6 20 -9 1 -18 -24 -9 -42
13 -24 13 11 15 10 9 -4 -9 -26 -4 -22 22 13 13 18 19 29 13 25 -6 -3 -12 -2
-14 3 -1 5 -11 -1 -21 -13z"/>
<path d="M4260 4110 c-13 -18 -17 -31 -10 -35 6 -4 9 -2 8 3 -2 6 2 9 7 9 6
-1 9 -8 9 -15 -1 -7 11 -19 26 -27 26 -13 28 -13 38 10 7 14 17 25 23 25 7 0
5 -10 -6 -27 -17 -25 -17 -27 0 -39 12 -9 24 -10 35 -4 18 9 30 4 30 -13 0 -5
-8 -6 -17 -2 -14 5 -15 4 -6 -6 10 -10 15 -9 28 1 16 13 21 35 6 26 -5 -3 -16
6 -25 19 -10 14 -22 23 -28 19 -7 -4 -8 -3 -4 4 5 9 13 9 27 2 10 -6 19 -9 19
-6 0 2 -31 22 -70 44 l-70 41 -20 -29z m35 -10 c-6 -9 -9 -9 -16 1 -10 17 0
34 13 21 6 -6 7 -16 3 -22z m34 -33 c-15 -15 -23 -18 -26 -9 -3 6 -10 10 -16
6 -7 -3 -2 3 10 14 12 11 19 23 15 27 -4 4 3 2 16 -4 l22 -12 -21 -22z m61
-47 c-14 -9 -40 -3 -40 9 0 16 14 20 33 10 15 -9 17 -13 7 -19z"/>
<path d="M4310 4080 c-9 -6 -10 -10 -3 -10 6 0 15 5 18 10 8 12 4 12 -15 0z"/>
<path d="M4427 4043 c-11 -10 -8 -25 3 -18 16 10 24 -24 9 -41 -11 -14 -9 -19
11 -34 13 -10 31 -15 39 -12 14 5 14 3 3 -10 -9 -11 -10 -18 -2 -23 16 -10 47
-76 55 -120 4 -22 6 -173 6 -335 l-1 -295 36 40 36 40 -36 -47 -36 -46 0 -438
c0 -380 -2 -444 -17 -490 -28 -89 -74 -139 -205 -218 -64 -39 -114 -75 -111
-80 4 -5 1 -6 -5 -2 -15 9 -243 -124 -235 -137 3 -6 1 -7 -5 -3 -15 9 -73 -24
-65 -37 3 -6 1 -7 -5 -3 -11 7 -76 -27 -67 -36 3 -2 -1 -5 -8 -5 -18 0 -297
-164 -297 -175 0 -5 -4 -7 -8 -4 -12 7 -114 -59 -105 -69 5 -4 2 -5 -4 -1 -14
8 -198 -96 -226 -128 -10 -12 -16 -15 -12 -9 4 9 1 11 -9 7 -9 -3 -14 -10 -11
-14 3 -4 -1 -7 -8 -7 -6 1 -39 -5 -72 -12 -33 -7 -83 -11 -112 -8 -38 4 -55 2
-64 -9 -6 -8 -16 -14 -22 -14 -6 0 -2 7 9 16 15 12 16 16 5 21 -8 3 -37 18
-65 32 l-51 26 -28 -26 -29 -26 47 -28 c26 -15 58 -28 70 -29 13 0 21 -4 19
-8 -2 -3 10 -11 28 -17 43 -14 138 -12 138 3 0 6 4 5 9 -3 8 -12 18 -13 63 -3
55 13 261 119 253 132 -2 4 1 7 8 7 22 0 416 237 410 247 -4 5 -1 6 5 2 14 -9
105 47 95 59 -5 4 -2 5 4 1 17 -9 155 73 146 87 -3 5 -1 7 5 4 15 -10 43 3 35
16 -3 5 -1 7 5 3 6 -3 100 47 209 111 309 184 349 235 359 460 3 74 1 112 -5
108 -6 -3 -8 -11 -5 -18 2 -7 -10 -26 -28 -42 -18 -17 -25 -21 -15 -9 22 27
22 40 0 23 -10 -7 -1 5 20 27 36 39 49 62 25 48 -8 -5 -8 -3 -2 7 5 8 10 53
10 101 1 82 0 87 -17 77 -11 -5 -19 -15 -19 -21 0 -6 7 -5 18 3 15 13 16 12 4
-3 -8 -10 -20 -14 -29 -11 -10 4 -14 2 -9 -5 3 -6 3 -13 -2 -16 -13 -8 -8 52
6 64 9 7 9 7 2 -2 -18 -22 -11 -32 10 -13 11 10 18 21 15 24 -2 4 1 13 7 21 8
12 9 12 4 -3 -3 -10 -2 -15 3 -12 6 3 9 19 9 35 -1 17 -5 27 -11 23 -6 -4 -7
-1 -1 8 11 17 12 69 2 62 -5 -2 -8 0 -8 6 0 5 4 12 9 15 5 3 8 24 8 45 0 22
-4 38 -9 35 -4 -3 -8 0 -8 6 0 6 -4 8 -10 5 -16 -10 -11 1 7 16 15 12 16 12 8
-1 -4 -8 -4 -12 0 -7 12 10 15 37 5 37 -4 0 -13 -7 -20 -15 -7 -9 -18 -14 -23
-12 -18 6 -17 44 1 58 15 13 16 12 3 -4 -19 -24 -8 -32 12 -9 22 24 7 52 -17
33 -27 -23 -18 -6 11 18 19 18 24 19 20 7 -4 -10 -3 -15 3 -11 19 12 4 -35
-20 -60 -13 -14 -19 -25 -13 -25 19 0 51 45 48 70 -1 14 -3 33 -4 43 0 11 -6
16 -13 12 -7 -4 -4 1 7 10 14 12 16 19 7 22 -6 3 -9 10 -5 16 10 16 11 57 1
51 -4 -3 -8 2 -8 11 0 9 4 14 8 11 5 -3 8 8 8 25 0 16 -1 29 -3 29 -7 0 -48
-25 -54 -33 -3 -4 -5 29 -5 72 1 50 6 85 14 93 17 17 15 33 -3 18 -24 -20 -17
-3 10 25 30 29 46 34 20 6 -16 -19 -16 -20 2 -18 15 1 20 9 20 34 0 18 -4 33
-9 33 -4 0 -8 5 -8 11 0 5 5 7 10 4 6 -3 10 -2 10 4 0 5 -4 13 -10 16 -5 3
-10 12 -10 18 0 9 2 9 8 0 4 -7 8 21 8 62 1 41 -3 72 -7 69 -5 -2 -6 -11 -3
-18 3 -8 0 -17 -5 -21 -6 -3 -9 -10 -6 -14 2 -5 -4 -16 -15 -26 -21 -19 -27
-45 -10 -45 6 0 15 11 20 25 5 14 12 25 14 25 8 0 -6 -33 -21 -51 -12 -14 -12
-18 -1 -22 7 -3 4 -5 -7 -4 -18 1 -20 8 -21 71 0 59 3 74 20 87 11 9 26 15 33
12 9 -4 11 11 7 59 -2 34 -7 71 -10 80 -7 23 -60 79 -68 71 -11 -11 -6 -24 7
-17 6 4 9 4 5 -1 -4 -4 -3 -14 3 -22 16 -19 6 -16 -20 6 -18 16 -19 20 -6 31
8 7 15 17 15 23 0 5 -10 2 -22 -9 -15 -14 -20 -15 -16 -4 8 23 -10 63 -24 54
-10 -6 -10 -4 0 8 9 11 10 18 2 23 -12 7 -32 -3 -26 -14 3 -4 -1 -8 -9 -8 -19
0 -19 16 0 23 8 4 12 11 8 17 -4 6 -1 7 7 2 8 -5 11 -3 8 5 -6 18 -43 42 -51
33z m177 -251 c-4 -9 -6 -21 -5 -27 2 -5 -1 -7 -5 -3 -4 4 -14 2 -23 -5 -8 -6
-6 1 7 17 23 30 20 55 -4 35 -7 -6 -11 -16 -7 -22 3 -6 1 -7 -5 -3 -9 5 -7 14
5 30 15 19 20 21 31 9 9 -8 11 -20 6 -31z m8 -44 c-7 -7 -18 -13 -25 -13 -7
-1 -11 -7 -9 -15 3 -12 1 -13 -10 -2 -11 11 -10 14 2 22 8 5 17 7 21 4 4 -2
10 0 14 6 3 5 9 10 13 10 3 0 0 -6 -6 -12z m2 -30 c-3 -7 -15 -21 -28 -30 -18
-13 -23 -13 -23 -3 0 8 3 12 7 10 4 -3 15 4 25 15 21 23 26 25 19 8z m-47
-250 c-3 -7 -5 -2 -5 12 0 14 2 19 5 13 2 -7 2 -19 0 -25z m41 -317 c10 -6 10
-10 -3 -21 -13 -11 -14 -10 -9 5 5 13 4 16 -4 11 -7 -4 -12 -2 -12 3 0 13 10
14 28 2z m-31 -28 c-4 -3 -2 -11 3 -18 7 -8 5 -12 -4 -12 -8 0 -12 7 -11 16 5
22 4 21 12 21 3 0 3 -3 0 -7z m-1 -218 c-3 -8 0 -15 6 -17 6 -2 5 -8 -3 -15
-11 -9 -14 -5 -14 22 0 18 4 31 8 28 5 -3 6 -11 3 -18z m15 -48 l-34 -32 29
37 c15 20 30 35 33 32 3 -2 -10 -19 -28 -37z m10 -21 c-14 -15 -19 -26 -12
-31 6 -3 11 -12 11 -18 0 -7 -4 -6 -10 3 -8 12 -10 12 -16 -4 -4 -10 -2 -21 5
-25 9 -6 9 -10 -1 -19 -10 -8 -13 -4 -15 16 -1 15 3 33 9 40 6 6 7 12 2 12 -4
0 3 11 16 25 13 14 26 25 28 25 3 0 -5 -11 -17 -24z m-28 -131 c4 -8 3 -16 -1
-19 -4 -3 -9 4 -9 15 -2 23 3 25 10 4z m38 -99 c-7 -8 -8 -16 -3 -18 5 -1 -5
-14 -22 -27 l-31 -25 24 27 c22 25 19 38 -5 20 -5 -5 2 2 16 14 28 26 38 30
21 9z m-1 -56 c-8 -14 -8 -20 0 -20 6 0 -2 -12 -17 -26 -18 -16 -22 -24 -10
-20 23 7 22 -1 -2 -14 -23 -12 -23 8 -1 36 14 16 13 17 -5 10 -16 -6 -14 -1 9
23 35 36 41 39 26 11z m-10 -93 c0 -2 -10 -12 -22 -23 l-23 -19 19 23 c18 21
26 27 26 19z m11 -109 c-10 -11 -11 -9 -5 6 6 15 4 17 -6 11 -9 -6 -11 -4 -5
4 5 9 10 10 18 2 8 -8 7 -14 -2 -23z m-11 -31 c0 -2 -10 -12 -22 -23 l-23 -19
19 23 c18 21 26 27 26 19z m10 -20 c0 -2 -15 -16 -32 -33 l-33 -29 29 33 c28
30 36 37 36 29z m-80 -191 c0 -2 -7 -9 -15 -16 -13 -11 -14 -10 -9 4 5 14 24
23 24 12z m-580 -390 c0 -2 -8 -10 -17 -17 -16 -13 -17 -12 -4 4 13 16 21 21
21 13z m-470 -240 c0 -2 -6 -9 -14 -15 -11 -9 -16 -9 -22 0 -4 7 -3 9 4 5 6
-3 13 -2 17 4 6 10 15 14 15 6z m-650 -180 c0 -2 -11 -11 -25 -20 -14 -9 -25
-13 -25 -8 0 5 10 14 23 20 27 13 27 13 27 8z m9 -23 c-12 -15 -12 -16 6 -9
14 5 17 4 9 -4 -6 -6 -18 -8 -28 -4 -15 6 -15 7 1 20 24 18 28 17 12 -3z m368
2 c0 -8 -4 -12 -9 -9 -5 3 -6 10 -3 15 9 13 12 11 12 -6z"/>
<path d="M4490 4002 c0 -7 5 -12 10 -12 6 0 10 -6 9 -12 -2 -21 13 -58 23 -58
6 0 8 7 4 15 -11 29 2 15 29 -31 15 -25 29 -43 32 -40 9 9 -54 101 -67 98 -6
-1 -9 2 -6 6 3 5 -3 17 -14 27 -12 10 -20 13 -20 7z"/>
<path d="M3497 3863 c17 -2 37 -11 44 -20 11 -13 10 -17 -6 -29 -10 -8 -17
-16 -14 -18 2 -2 15 4 28 15 l23 19 -23 20 c-14 11 -37 19 -54 18 l-30 -1 32
-4z"/>
<path d="M3684 3820 c1 -33 8 -37 26 -15 7 8 17 15 23 15 7 0 7 -4 -1 -12 -7
-7 -12 -16 -12 -22 0 -5 6 -1 14 10 11 14 11 22 3 32 -8 11 -12 10 -19 -2 -13
-23 -27 -20 -21 4 3 11 1 20 -5 20 -5 0 -9 -13 -8 -30z"/>
<path d="M3364 3818 l-19 -23 25 20 c14 11 27 21 29 22 2 2 0 3 -6 3 -5 0 -18
-10 -29 -22z"/>
<path d="M3515 3829 c-4 -6 -13 -8 -21 -5 -8 3 -29 -8 -47 -26 -17 -17 -25
-25 -16 -19 10 6 27 14 40 16 21 4 73 45 57 45 -4 0 -10 -5 -13 -11z"/>
<path d="M3620 3830 c0 -8 -3 -10 -6 -7 -4 4 -19 -1 -35 -10 -22 -13 -27 -22
-24 -45 3 -20 -3 -32 -18 -43 -12 -8 -16 -15 -10 -15 7 0 38 24 69 53 50 47
55 54 40 66 -13 11 -16 11 -16 1z m20 -15 c0 -2 -17 -17 -38 -34 -36 -28 -38
-28 -37 -9 2 24 24 43 54 45 11 1 21 0 21 -2z"/>
<path d="M3653 3800 c-10 -15 -9 -19 3 -24 23 -9 24 -8 21 14 -5 29 -11 31
-24 10z"/>
<path d="M3210 3799 c0 -5 5 -7 10 -4 6 3 10 8 10 11 0 2 -4 4 -10 4 -5 0 -10
-5 -10 -11z"/>
<path d="M3250 3799 c0 -5 5 -7 10 -4 6 3 10 8 10 11 0 2 -4 4 -10 4 -5 0 -10
-5 -10 -11z"/>
<path d="M3355 3784 l-30 -26 33 22 c17 12 32 23 32 26 0 7 -4 5 -35 -22z"/>
<path d="M3776 3793 c-6 -14 -5 -15 5 -6 7 7 10 15 7 18 -3 3 -9 -2 -12 -12z"/>
<path d="M3809 3787 c6 -8 7 -18 3 -22 -4 -5 -1 -5 6 -1 10 6 10 11 1 22 -6 8
-14 14 -16 14 -3 0 0 -6 6 -13z"/>
<path d="M3250 3769 c-22 -18 -22 -19 -3 -10 12 6 25 16 28 21 9 15 3 12 -25
-11z"/>
<path d="M3170 3769 c0 -5 5 -7 10 -4 6 3 10 8 10 11 0 2 -4 4 -10 4 -5 0 -10
-5 -10 -11z"/>
<path d="M3209 3763 c-13 -16 -12 -17 4 -4 9 7 17 15 17 17 0 8 -8 3 -21 -13z"/>
<path d="M3368 3759 c-10 -10 -14 -19 -10 -19 5 0 17 9 27 20 10 11 14 20 9
19 -5 0 -17 -9 -26 -20z"/>
<path d="M3449 3763 c-13 -16 -12 -17 4 -4 16 13 21 21 13 21 -2 0 -10 -8 -17
-17z"/>
<path d="M3485 3770 c-3 -5 -1 -10 4 -10 6 0 11 5 11 10 0 6 -2 10 -4 10 -3 0
-8 -4 -11 -10z"/>
<path d="M3690 3765 c-7 -9 -19 -14 -25 -11 -7 2 -26 -10 -41 -27 l-29 -32 34
30 c27 24 33 26 27 10 -6 -17 -4 -17 18 4 14 14 29 21 33 18 3 -4 -2 -14 -13
-22 -10 -8 -14 -15 -8 -15 5 0 23 14 40 32 16 18 21 26 11 18 -15 -11 -20 -11
-26 -1 -6 9 -11 8 -21 -4z"/>
<path d="M3601 3751 c-13 -10 -20 -21 -15 -24 5 -3 19 6 31 19 25 28 18 31
-16 5z"/>
<path d="M3835 3761 c-3 -5 -1 -12 5 -16 6 -4 8 -11 4 -16 -3 -6 -12 -3 -20 8
-7 10 -14 14 -14 9 0 -5 -6 -3 -14 3 -11 9 -16 9 -22 0 -4 -8 -3 -9 4 -5 17
11 15 -9 -3 -24 -8 -7 -15 -9 -15 -5 0 5 -9 0 -20 -10 -11 -10 -23 -15 -27
-11 -4 4 6 18 22 32 17 14 21 21 10 15 -29 -14 -58 -48 -50 -60 3 -6 0 -9 -7
-6 -7 3 -17 1 -23 -3 -16 -11 -41 -47 -28 -39 6 4 14 1 16 -5 4 -10 6 -10 6 0
1 6 6 12 12 12 6 0 9 -6 6 -14 -6 -16 16 -40 26 -29 4 3 7 0 7 -7 0 -9 9 -5
25 10 14 13 25 20 25 16 0 -4 21 14 46 39 26 25 49 43 51 41 3 -3 -19 -32 -48
-66 -30 -34 -53 -66 -51 -71 1 -5 -2 -9 -8 -9 -14 0 -12 23 3 40 6 8 2 6 -10
-4 -18 -15 -20 -22 -11 -33 12 -15 30 -14 29 2 0 18 41 54 55 48 8 -3 14 -10
14 -15 0 -6 -6 -8 -14 -5 -8 3 -20 -1 -26 -9 -7 -8 -9 -14 -4 -14 5 -1 -2 -10
-15 -20 -13 -11 -18 -20 -12 -20 6 0 37 25 68 55 32 30 52 55 46 55 -7 0 -13
5 -13 10 0 16 17 12 24 -5 6 -17 -101 -138 -115 -129 -5 3 -9 1 -9 -4 0 -22
14 -18 42 14 17 19 35 34 40 34 6 0 -4 -16 -21 -35 -34 -39 -38 -51 -44 -142
-3 -35 -14 -81 -27 -105 -24 -48 -84 -118 -101 -118 -6 0 -8 -7 -5 -16 5 -13
4 -14 -7 -6 -14 12 -27 7 -27 -10 0 -5 6 -6 13 -2 10 6 10 4 0 -7 -19 -20 -16
-33 5 -18 15 13 16 12 3 -3 -7 -10 -17 -16 -21 -13 -5 3 -16 -5 -24 -17 -9
-12 -16 -17 -16 -11 0 6 7 16 15 23 8 7 15 18 15 24 -1 6 -16 -6 -34 -27 -25
-28 -36 -35 -42 -25 -4 7 -4 10 1 6 8 -7 51 39 43 47 -2 2 -18 -9 -35 -25 -33
-31 -54 -41 -33 -15 7 8 8 15 2 15 -16 0 -34 -27 -23 -34 6 -4 8 -13 4 -21 -7
-21 14 -19 26 3 6 9 11 12 11 6 0 -6 -9 -19 -20 -29 -19 -17 -19 -20 -4 -36
15 -17 17 -17 41 12 14 16 28 27 31 25 3 -3 -7 -18 -22 -33 -15 -15 -32 -36
-38 -48 -6 -11 11 1 37 28 27 26 52 47 58 47 5 0 -9 -17 -32 -37 -32 -30 -40
-43 -35 -60 4 -15 11 -20 22 -16 18 7 17 5 -12 -17 -16 -12 -18 -12 -12 -1 6
9 5 12 -5 9 -8 -3 -13 -13 -12 -23 1 -11 -2 -14 -9 -7 -7 7 -4 19 9 38 l18 28
-32 -24 -33 -24 36 -65 c107 -195 188 -330 195 -325 5 3 7 -1 4 -8 -3 -7 12
-42 33 -78 l38 -65 138 -3 137 -3 -17 30 c-10 17 -21 28 -24 26 -4 -2 -7 1 -7
8 0 13 -52 97 -60 97 -2 0 -2 -4 1 -9 3 -4 -4 -17 -17 -27 -20 -18 -21 -18 -7
0 8 10 15 25 16 33 3 17 -84 153 -97 153 -5 0 -8 3 -7 8 1 4 -3 17 -10 30 -14
23 -35 22 -26 -2 3 -8 1 -17 -5 -21 -7 -4 -8 1 -4 12 5 12 -6 7 -30 -14 -56
-49 -57 -40 -1 10 l47 43 -48 69 c-27 39 -64 92 -83 118 -28 40 -32 51 -21 58
8 5 20 9 27 9 7 0 11 4 8 9 -3 5 5 9 18 9 30 0 124 62 169 111 47 52 90 128
81 142 -5 8 -3 9 6 4 10 -6 12 -3 8 13 -4 12 -2 20 2 17 11 -7 24 51 15 65 -5
8 -11 8 -19 1 -7 -6 -16 -8 -20 -4 -4 4 -4 0 0 -10 5 -14 9 -15 20 -6 11 9 14
8 14 -5 0 -10 -4 -15 -9 -11 -10 6 -37 -34 -33 -48 1 -4 -7 -3 -19 3 -16 9
-18 14 -8 26 17 21 5 28 -15 8 -12 -12 -14 -20 -6 -29 8 -10 -1 -23 -36 -54
-26 -22 -51 -38 -56 -35 -5 3 -19 -2 -31 -13 l-22 -18 19 23 c26 30 5 28 -24
-3 -12 -13 -26 -22 -30 -20 -4 3 -13 -2 -20 -10 -7 -8 -9 -15 -5 -15 3 0 -3
-12 -14 -27 -32 -40 -18 -39 23 2 20 19 36 31 36 26 0 -5 -11 -18 -25 -29 -29
-23 -32 -32 -10 -32 8 0 15 -4 15 -8 0 -5 -7 -9 -15 -9 -8 0 -15 3 -15 7 0 9
-32 6 -50 -5 -13 -8 -13 -6 0 11 8 10 23 29 34 42 23 26 11 29 -18 5 -21 -18
-21 -18 -2 5 11 12 15 22 11 22 -5 0 2 11 14 24 13 14 20 29 17 35 -4 6 -1 9
6 6 8 -3 25 6 38 20 14 15 18 25 11 25 -11 0 -11 3 -1 15 7 9 15 13 18 10 3
-3 11 0 19 7 7 6 16 8 20 5 7 -7 33 11 33 23 0 13 -35 8 -53 -8 -9 -8 -20 -12
-23 -9 -4 4 0 9 9 13 9 3 13 12 10 21 -4 9 0 14 8 13 27 -4 38 0 59 22 11 12
20 16 20 9 0 -7 5 -9 11 -5 7 4 7 9 2 13 -18 11 -11 46 15 73 38 41 21 43 -19
2 -24 -25 -30 -37 -21 -43 9 -5 4 -15 -18 -36 -23 -22 -33 -26 -42 -17 -6 6
-8 15 -4 19 4 4 11 1 15 -6 5 -8 11 -9 15 -3 3 5 0 12 -8 15 -24 10 -17 72 13
106 61 69 65 74 47 68 -9 -4 -16 -3 -16 1 0 12 72 83 78 77 3 -3 -7 -19 -23
-35 -16 -16 -26 -32 -23 -35 2 -3 19 13 37 36 18 22 36 38 39 34 3 -3 -16 -28
-43 -55 -27 -28 -44 -50 -38 -50 6 0 30 21 52 46 23 26 41 43 41 39 0 -4 -19
-29 -42 -56 -93 -104 -123 -142 -126 -156 -2 -9 1 -13 6 -9 6 3 12 1 14 -6 3
-8 7 -6 11 5 3 9 3 16 -1 16 -20 -3 -16 5 22 45 22 24 61 66 85 92 24 27 38
41 31 31 -15 -20 -5 -36 12 -19 8 8 6 23 -7 59 -10 26 -20 42 -23 35 -2 -6 -8
-12 -13 -12 -6 0 -5 8 1 20 16 30 3 42 -25 24 -24 -15 -24 -15 -12 9 6 14 16
23 21 20 5 -4 6 -1 2 6 -8 12 -14 10 -58 -21 -27 -19 -41 -47 -15 -32 8 5 8 2
-2 -9 -14 -18 -26 -23 -17 -8 4 5 0 11 -6 14 -8 3 1 19 26 45 22 23 44 38 50
35 6 -3 -5 10 -23 30 -39 41 -38 41 -46 28z m49 -53 c-3 -5 -12 -7 -20 -4 -7
3 -42 -19 -77 -49 -46 -40 -69 -53 -84 -49 -20 5 -19 7 11 37 18 18 20 22 5 9
-18 -16 -29 -20 -34 -12 -4 6 -14 9 -24 6 -13 -5 -12 -3 2 8 11 8 26 12 35 9
12 -5 14 -2 9 11 -4 11 -3 15 4 11 6 -4 20 1 31 12 12 10 18 13 15 6 -4 -6 -3
-14 3 -18 5 -3 14 5 19 18 12 31 32 39 48 18 11 -14 14 -14 22 -1 7 9 6 20 -2
30 -6 8 1 4 15 -9 15 -13 25 -28 22 -33z m25 -105 c-40 -44 -52 -54 -58 -47
-3 2 15 24 39 49 52 53 69 51 19 -2z m-59 -97 c0 -2 -13 -19 -30 -37 -16 -19
-30 -29 -30 -22 0 6 7 18 15 27 8 8 15 19 15 25 0 6 7 11 15 11 8 0 15 -2 15
-4z m60 -299 c0 -2 -19 -21 -42 -42 l-43 -40 40 43 c36 39 45 47 45 39z m-190
-11 c0 -2 -8 -10 -17 -17 -16 -13 -17 -12 -4 4 13 16 21 21 21 13z m90 -81
c-15 -18 0 -20 20 -2 8 6 4 0 -9 -16 -18 -19 -27 -24 -32 -15 -5 7 -1 20 8 30
20 22 31 24 13 3z m65 -27 c-22 -24 -41 -45 -42 -47 -2 -2 -5 -2 -8 1 -5 5 74
88 84 88 3 0 -13 -19 -34 -42z m-110 3 c3 -5 2 -12 -3 -15 -5 -3 -9 1 -9 9 0
17 3 19 12 6z m75 -5 c0 -2 -8 -10 -17 -17 -16 -13 -17 -12 -4 4 13 16 21 21
21 13z m-100 -32 c0 -8 -5 -12 -10 -9 -6 4 -8 11 -5 16 9 14 15 11 15 -7z m36
-11 c-10 -10 -19 5 -10 18 6 11 8 11 12 0 2 -7 1 -15 -2 -18z m-172 -18 c-9
-14 -19 -23 -22 -20 -5 4 26 45 35 45 2 0 -4 -11 -13 -25z m-50 -16 c-10 -11
-28 -25 -39 -31 -13 -7 -10 0 10 20 34 34 58 43 29 11z m196 8 c0 -2 -12 -14
-27 -28 l-28 -24 24 28 c23 25 31 32 31 24z m-125 -57 c-16 -16 -31 -28 -33
-25 -3 3 -15 -3 -26 -12 -21 -18 -21 -18 -2 4 10 13 22 21 26 18 4 -2 17 7 28
20 12 14 25 25 29 25 4 0 -6 -13 -22 -30z m5 -75 c-7 -9 -15 -13 -17 -11 -7 7
7 26 19 26 6 0 6 -6 -2 -15z m-70 -68 c0 -2 -9 -12 -19 -21 -14 -13 -21 -14
-27 -5 -4 7 -3 10 3 6 6 -4 16 0 23 8 12 14 20 19 20 12z m14 -35 c3 -5 -1 -9
-9 -9 -8 0 -15 4 -15 9 0 4 4 8 9 8 6 0 12 -4 15 -8z m36 -15 c0 -2 -12 -14
-27 -28 l-28 -24 24 28 c23 25 31 32 31 24z m70 0 c0 -2 -17 -19 -37 -38 l-38
-34 34 38 c33 34 41 42 41 34z m-18 -50 c-31 -32 -43 -55 -22 -42 18 11 11 -1
-12 -21 -12 -10 -18 -13 -14 -6 4 7 2 12 -5 12 -7 0 7 20 31 45 24 25 46 45
49 45 3 0 -9 -15 -27 -33z m69 10 c-10 -9 -11 -8 -5 6 3 10 9 15 12 12 3 -3 0
-11 -7 -18z m-30 -29 c-10 -11 -11 -9 -5 7 l7 20 -24 -20 -24 -20 19 23 c13
15 23 19 30 12 7 -7 6 -14 -3 -22z m5 -46 c-17 -16 -18 -16 -5 5 7 12 15 20
18 17 3 -2 -3 -12 -13 -22z m-26 -15 c0 -2 -10 -12 -22 -23 l-23 -19 19 23
c18 21 26 27 26 19z m90 -20 c0 -2 -19 -21 -42 -42 l-43 -40 40 43 c36 39 45
47 45 39z m-18 -50 c-30 -32 -28 -46 3 -17 14 13 25 21 25 19 0 -3 -13 -17
-28 -32 -24 -23 -29 -25 -29 -10 0 16 33 63 45 63 3 0 -4 -10 -16 -23z m-84
-22 c-3 -3 -9 2 -12 12 -6 14 -5 15 5 6 7 -7 10 -15 7 -18z m202 21 c0 -2 -8
-10 -17 -17 -16 -13 -17 -12 -4 4 13 16 21 21 21 13z m-70 -9 c0 -2 -19 -21
-42 -42 l-43 -40 40 43 c36 39 45 47 45 39z m30 -30 c0 -2 -12 -14 -27 -28
l-28 -24 24 28 c23 25 31 32 31 24z m-40 -11 c0 -2 -8 -10 -17 -17 -16 -13
-17 -12 -4 4 13 16 21 21 21 13z m50 -9 c0 -2 -17 -19 -37 -38 l-38 -34 34 38
c33 34 41 42 41 34z m10 -20 c0 -2 -15 -16 -32 -33 l-33 -29 29 33 c28 30 36
37 36 29z m4 -35 c3 -5 -1 -9 -9 -9 -8 0 -12 4 -9 9 3 4 7 8 9 8 2 0 6 -4 9
-8z m-44 -42 c0 -5 -5 -10 -11 -10 -5 0 -7 5 -4 10 3 6 8 10 11 10 2 0 4 -4 4
-10z m111 -83 c-10 -9 -11 -8 -5 6 3 10 9 15 12 12 3 -3 0 -11 -7 -18z"/>
<path d="M3801 3704 c6 -7 16 -11 21 -8 11 7 3 17 -18 20 -12 2 -13 -1 -3 -12z"/>
<path d="M3749 3649 l-44 -41 42 32 c40 29 60 50 50 50 -2 0 -24 -18 -48 -41z"/>
<path d="M3069 3743 c-13 -16 -12 -17 4 -4 16 13 21 21 13 21 -2 0 -10 -8 -17
-17z"/>
<path d="M3389 3743 c-13 -16 -12 -17 4 -4 16 13 21 21 13 21 -2 0 -10 -8 -17
-17z"/>
<path d="M3140 3735 c-7 -9 -21 -13 -30 -10 -10 3 -23 -2 -31 -12 -11 -15 -11
-16 1 -5 21 18 35 15 19 -5 -9 -12 -3 -10 18 5 18 13 35 27 38 32 10 16 -1 12
-15 -5z"/>
<path d="M2495 3730 c-3 -6 1 -7 9 -4 18 7 21 14 7 14 -6 0 -13 -4 -16 -10z"/>
<path d="M2705 3730 c-3 -5 -1 -10 4 -10 6 0 11 5 11 10 0 6 -2 10 -4 10 -3 0
-8 -4 -11 -10z"/>
<path d="M3439 3693 l-34 -38 38 34 c20 19 37 36 37 38 0 8 -8 0 -41 -34z"/>
<path d="M3479 3703 c-13 -16 -12 -17 4 -4 9 7 17 15 17 17 0 8 -8 3 -21 -13z"/>
<path d="M3280 3700 c0 -5 5 -10 10 -10 6 0 10 5 10 10 0 6 -4 10 -10 10 -5 0
-10 -4 -10 -10z"/>
<path d="M3316 3698 c3 -5 10 -6 15 -3 13 9 11 12 -6 12 -8 0 -12 -4 -9 -9z"/>
<path d="M3531 3686 c-14 -15 -19 -26 -12 -31 16 -9 32 4 29 22 -2 9 4 18 12
21 8 3 12 1 8 -3 -9 -9 23 -35 34 -29 5 3 8 11 8 17 0 8 -3 7 -9 -2 -7 -11
-11 -9 -20 8 -15 27 -22 26 -50 -3z m9 -16 c0 -5 -5 -10 -11 -10 -5 0 -7 5 -4
10 3 6 8 10 11 10 2 0 4 -4 4 -10z"/>
<path d="M3646 3701 c2 -2 -8 -17 -23 -33 -38 -40 -20 -35 22 6 29 29 32 35
16 33 -11 -1 -18 -3 -15 -6z"/>
<path d="M3370 3685 c-7 -9 -11 -17 -9 -20 3 -2 10 5 17 15 14 24 10 26 -8 5z"/>
<path d="M3150 3680 c-8 -5 -12 -12 -9 -15 4 -3 12 1 19 10 14 17 11 19 -10 5z"/>
<path d="M2600 3669 c0 -5 5 -7 10 -4 6 3 10 8 10 11 0 2 -4 4 -10 4 -5 0 -10
-5 -10 -11z"/>
<path d="M3245 3670 c-3 -6 1 -7 9 -4 18 7 21 14 7 14 -6 0 -13 -4 -16 -10z"/>
<path d="M3439 3663 c-13 -17 -13 -17 6 -3 11 8 22 16 24 17 2 2 0 3 -6 3 -6
0 -17 -8 -24 -17z"/>
<path d="M4587 3662 c-18 -20 -17 -54 3 -60 8 -3 10 0 6 7 -4 7 -2 18 4 26 10
12 10 15 -1 15 -11 0 -11 2 1 10 8 5 12 11 9 15 -3 3 -13 -3 -22 -13z"/>
<path d="M2606 3602 c-3 -5 1 -9 9 -9 8 0 12 4 9 9 -3 4 -7 8 -9 8 -2 0 -6 -4
-9 -8z"/>
<path d="M2379 3513 c-13 -16 -12 -17 4 -4 16 13 21 21 13 21 -2 0 -10 -8 -17
-17z"/>
<path d="M2710 3520 c-9 -6 -10 -10 -3 -10 6 0 15 5 18 10 8 12 4 12 -15 0z"/>
<path d="M2766 3493 c-6 -14 -5 -15 5 -6 7 7 10 15 7 18 -3 3 -9 -2 -12 -12z"/>
<path d="M3940 3494 c0 -8 5 -12 10 -9 6 3 10 10 10 16 0 5 -4 9 -10 9 -5 0
-10 -7 -10 -16z"/>
<path d="M3967 3493 c-10 -10 -25 -18 -35 -18 -11 0 -17 -8 -17 -21 0 -12 -7
-30 -16 -40 -25 -29 -31 -44 -19 -44 6 0 15 10 20 23 6 15 9 17 9 6 1 -9 -6
-22 -14 -29 -9 -7 -13 -20 -10 -29 6 -21 -71 -112 -89 -105 -8 3 -17 0 -21 -5
-3 -6 -11 -9 -16 -6 -5 4 -9 2 -9 -4 0 -18 17 -21 30 -5 11 12 15 12 22 2 8
-10 11 -10 15 0 2 6 9 12 15 12 7 0 6 -5 -1 -14 -8 -9 -8 -15 -1 -18 5 -1 1
-9 -11 -16 -12 -8 -18 -9 -14 -3 3 6 1 11 -5 11 -6 0 -8 5 -4 12 4 7 3 8 -4 4
-6 -4 -8 -14 -5 -24 6 -15 5 -15 -11 1 -18 18 -20 17 -67 -29 -27 -26 -46 -50
-44 -53 3 -2 14 4 25 14 11 10 20 14 20 10 0 -5 13 4 29 19 26 25 49 30 61 14
8 -10 71 42 64 53 -3 5 -2 8 3 7 4 -2 8 2 8 7 0 6 -4 9 -9 7 -11 -4 1 12 68
91 27 31 47 59 45 62 -3 2 -33 -29 -68 -70 -34 -41 -65 -75 -68 -75 -3 0 15
24 39 53 55 64 83 107 71 107 -5 0 -17 -13 -26 -30 -10 -16 -23 -30 -29 -30
-6 0 -1 12 13 26 13 14 23 29 22 32 -2 4 7 7 20 7 36 0 47 14 47 61 0 48 -6
53 -33 27z m21 -37 c-2 -18 -6 -22 -14 -15 -8 7 -15 6 -20 -2 -5 -8 -3 -9 6
-4 9 6 11 4 6 -4 -5 -7 -10 -10 -13 -7 -3 3 -15 0 -27 -6 -14 -7 -10 1 13 26
41 42 52 45 49 12z m-254 -301 c-9 -14 -18 -25 -21 -25 -5 0 5 18 20 38 17 22
18 13 1 -13z"/>
<path d="M3831 3445 c-44 -50 -38 -56 9 -10 43 42 45 45 31 45 -5 0 -23 -16
-40 -35z"/>
<path d="M2329 3433 l-24 -28 28 24 c25 23 32 31 24 31 -2 0 -14 -12 -28 -27z"/>
<path d="M2420 3435 c-7 -8 -17 -12 -23 -8 -6 4 -7 1 -3 -6 6 -9 13 -8 27 5
10 9 19 19 19 21 0 7 -8 2 -20 -12z"/>
<path d="M2774 3408 c-23 -27 -24 -29 -3 -10 14 12 28 20 31 17 2 -3 5 2 5 10
0 19 2 20 -33 -17z"/>
<path d="M2710 3416 c0 -2 7 -7 16 -10 8 -3 12 -2 9 4 -6 10 -25 14 -25 6z"/>
<path d="M3985 3401 c-3 -5 -1 -12 5 -16 5 -3 10 1 10 9 0 18 -6 21 -15 7z"/>
<path d="M4594 3389 c-11 -12 -19 -36 -19 -54 0 -31 1 -33 18 -18 22 21 22 5
0 -19 -19 -22 -28 -58 -13 -58 14 0 53 40 46 48 -4 3 -12 0 -18 -6 -20 -20
-29 -13 -10 6 9 11 19 18 22 16 7 -3 6 94 -1 101 -3 3 -14 -4 -25 -16z m8 -41
c-6 -6 -15 -8 -19 -4 -4 4 -1 11 7 16 19 12 27 3 12 -12z"/>
<path d="M2694 3358 l-29 -33 33 29 c17 17 32 31 32 33 0 8 -8 1 -36 -29z"/>
<path d="M3985 3348 c4 -15 3 -19 -3 -10 -7 10 -11 10 -22 -3 -7 -8 -10 -18
-6 -22 3 -3 6 -1 6 6 0 8 7 10 20 6 16 -5 20 -2 20 19 0 14 -5 26 -11 26 -6 0
-8 -9 -4 -22z"/>
<path d="M2786 3335 c-11 -8 -18 -17 -15 -19 2 -2 15 4 28 15 27 22 15 26 -13
4z"/>
<path d="M2414 3318 l-19 -23 23 19 c21 18 27 26 19 26 -2 0 -12 -10 -23 -22z"/>
<path d="M2699 3323 c-13 -16 -12 -17 4 -4 16 13 21 21 13 21 -2 0 -10 -8 -17
-17z"/>
<path d="M2815 3288 l-50 -53 53 50 c48 46 57 55 49 55 -1 0 -25 -24 -52 -52z"/>
<path d="M3832 3301 c-21 -16 -22 -17 -3 -18 11 -1 22 5 25 14 9 23 4 24 -22
4z"/>
<path d="M2719 3273 l-24 -26 27 19 c15 10 28 22 28 27 0 12 -5 8 -31 -20z"/>
<path d="M3926 3291 c-4 -6 -2 -11 5 -11 7 0 5 -8 -6 -20 -10 -11 -13 -20 -7
-20 16 0 32 34 23 49 -6 9 -11 10 -15 2z"/>
<path d="M2331 3254 c0 -11 3 -14 6 -6 3 7 2 16 -1 19 -3 4 -6 -2 -5 -13z"/>
<path d="M2870 3252 c0 -12 3 -12 15 -2 8 7 15 13 15 15 0 1 -7 2 -15 2 -8 0
-15 -7 -15 -15z"/>
<path d="M2813 3234 c0 -19 2 -22 11 -12 6 7 16 18 23 23 9 7 6 10 -11 11 -19
1 -23 -3 -23 -22z"/>
<path d="M2724 3208 l-29 -33 33 29 c17 17 32 25 32 20 0 -6 -3 -14 -7 -18 -4
-3 -8 -14 -9 -22 -1 -9 1 -13 4 -9 4 4 7 10 7 15 0 4 9 16 20 26 12 11 16 16
10 12 -6 -4 -16 -3 -21 2 -7 7 -20 -1 -40 -22z"/>
<path d="M2230 3220 c-9 -6 -10 -10 -3 -10 6 0 15 5 18 10 8 12 4 12 -15 0z"/>
<path d="M2317 3205 c-15 -14 -24 -25 -19 -25 5 0 19 11 32 25 30 32 23 32
-13 0z"/>
<path d="M2366 3213 c-6 -14 -5 -15 5 -6 7 7 10 15 7 18 -3 3 -9 -2 -12 -12z"/>
<path d="M2844 3188 c-53 -58 -87 -103 -40 -55 42 43 63 42 25 -1 l-24 -27 28
25 c15 13 25 30 23 36 -3 7 4 24 15 38 31 39 18 31 -27 -16z"/>
<path d="M2805 3183 c-19 -20 -33 -38 -30 -41 3 -3 6 -3 8 -1 1 2 18 21 36 42
45 48 33 48 -14 0z"/>
<path d="M2196 3197 c3 -10 9 -15 12 -12 3 3 0 11 -7 18 -10 9 -11 8 -5 -6z"/>
<path d="M2761 3166 l-24 -31 28 27 c16 15 27 29 24 31 -2 3 -15 -10 -28 -27z"/>
<path d="M2870 3180 c0 -5 3 -9 8 -9 20 3 23 -3 11 -18 -13 -16 -12 -17 4 -4
13 10 15 17 6 27 -13 16 -29 18 -29 4z"/>
<path d="M2716 3147 c3 -10 9 -15 12 -12 3 3 0 11 -7 18 -10 9 -11 8 -5 -6z"/>
<path d="M2920 3124 c-31 -30 -49 -31 -24 -2 14 17 15 20 2 9 -9 -7 -21 -10
-26 -7 -5 3 -18 -4 -28 -17 l-19 -22 23 19 c25 22 30 11 6 -15 -14 -16 -14
-17 0 -15 8 1 19 5 22 9 16 15 26 6 12 -10 -28 -34 -31 -48 -5 -24 36 33 34
20 -4 -24 -17 -19 -27 -35 -23 -35 5 0 28 23 52 50 24 28 39 50 33 50 -5 0
-12 -6 -14 -12 -4 -10 -8 -9 -16 2 -8 11 -5 19 12 32 16 12 24 14 29 5 4 -7 8
-7 8 -2 0 27 -16 31 -40 9z"/>
<path d="M2289 3113 c-29 -35 -41 -53 -36 -53 2 0 17 16 31 35 28 36 31 49 5
18z"/>
<path d="M2748 3123 c-10 -2 -18 -9 -18 -14 0 -6 8 -5 20 1 11 6 20 13 20 15
0 3 -1 4 -2 4 -2 -1 -11 -3 -20 -6z"/>
<path d="M3575 3119 c-11 -17 1 -21 15 -4 8 9 8 15 2 15 -6 0 -14 -5 -17 -11z"/>
<path d="M3214 3111 c7 -10 31 -9 42 2 4 4 -5 7 -20 7 -15 0 -25 -4 -22 -9z"/>
<path d="M3275 3110 c4 -6 11 -7 17 -4 7 4 8 2 4 -4 -8 -13 6 -16 18 -5 11 12
76 10 76 -1 0 -6 5 -5 12 2 7 7 17 12 23 12 5 0 2 -5 -7 -11 -22 -12 -23 -25
-4 -32 10 -4 13 -1 9 9 -5 13 8 19 31 15 4 -1 16 4 25 11 15 12 15 11 1 -7 -8
-11 -21 -24 -28 -28 -11 -7 -11 -12 0 -24 10 -13 6 -21 -30 -52 -40 -35 -57
-61 -29 -45 8 5 8 2 -2 -9 -7 -9 -19 -17 -25 -17 -6 0 -5 4 3 9 8 5 9 11 3 15
-5 3 -13 -1 -16 -10 -4 -11 -14 -15 -31 -12 -13 3 -22 2 -19 -3 2 -4 23 -7 46
-7 29 0 49 8 69 26 31 27 32 44 2 21 -10 -7 -1 5 20 27 25 27 34 43 27 50 -7
7 -2 20 16 39 25 27 61 45 48 24 -3 -5 -9 -7 -13 -5 -4 3 -8 -1 -8 -9 0 -8 3
-15 7 -15 8 0 40 34 40 42 0 3 -65 6 -146 6 -95 1 -143 -2 -139 -8z"/>
<path d="M3230 3090 c0 -15 14 -19 34 -9 19 9 19 8 -3 -10 -16 -15 -19 -21 -8
-21 18 0 42 28 33 38 -9 9 -56 10 -56 2z"/>
<path d="M3292 3063 c-24 -18 -38 -33 -32 -33 6 0 9 -4 6 -9 -13 -21 28 -20
51 0 12 13 23 18 23 12 0 -15 -48 -45 -60 -38 -6 3 -10 3 -10 -2 1 -11 29 -60
30 -50 0 4 8 4 17 -2 17 -9 49 10 112 70 22 21 23 23 6 35 -10 7 -22 11 -26 8
-5 -3 -9 0 -9 6 0 6 -5 8 -12 4 -8 -5 -9 -2 -5 10 4 10 3 15 -3 11 -6 -3 -10
-1 -10 6 0 9 -3 9 -14 0 -8 -7 -16 -8 -18 -3 -1 5 -22 -6 -46 -25z m21 -24
c-26 -27 -31 -28 -37 -14 -4 13 -2 16 9 11 8 -3 15 -1 15 4 0 13 31 42 38 35
3 -3 -8 -19 -25 -36z m52 32 c-5 -9 32 -27 48 -23 5 1 5 -3 1 -9 -5 -9 -2 -10
9 -6 22 8 21 4 -3 -18 -17 -15 -20 -16 -15 -3 4 9 1 19 -5 23 -6 3 -10 3 -9
-2 1 -4 0 -11 -1 -15 -1 -5 -3 -11 -4 -15 -2 -13 -56 -63 -56 -52 0 6 -4 7
-10 4 -5 -3 -10 -1 -10 5 0 6 -6 8 -12 5 -7 -4 5 10 27 29 22 20 45 34 52 31
7 -2 10 2 7 9 -3 8 -14 12 -25 9 -21 -6 -25 7 -7 25 14 14 21 16 13 3z"/>
<path d="M3342 2998 c-24 -15 -30 -23 -21 -29 8 -5 18 0 27 12 7 11 17 17 21
15 4 -3 8 1 8 9 0 8 -1 15 -1 15 -1 0 -16 -10 -34 -22z"/>
<path d="M2326 3082 c-3 -5 1 -9 9 -9 8 0 12 4 9 9 -3 4 -7 8 -9 8 -2 0 -6 -4
-9 -8z"/>
<path d="M3435 3080 c-3 -5 -1 -10 4 -10 6 0 11 5 11 10 0 6 -2 10 -4 10 -3 0
-8 -4 -11 -10z"/>
<path d="M2274 3048 l-19 -23 23 19 c21 18 27 26 19 26 -2 0 -12 -10 -23 -22z"/>
<path d="M2785 3044 c-18 -16 -22 -22 -9 -15 18 9 53 42 43 41 -2 -1 -17 -12
-34 -26z"/>
<path d="M2975 3055 c4 -15 0 -21 -14 -22 -15 -1 -18 3 -14 15 3 9 -9 1 -27
-18 -18 -19 -47 -45 -64 -57 -17 -14 -24 -23 -15 -23 8 0 20 5 26 11 8 8 16 8
30 0 17 -10 17 -11 -4 -17 -13 -3 -23 -11 -23 -16 0 -5 5 -6 10 -3 13 8 32 -4
25 -15 -3 -5 -17 -5 -32 1 -18 6 -30 6 -39 -2 -13 -10 -18 -6 -15 14 2 13 -17
7 -23 -8 -3 -9 0 -15 9 -15 18 0 19 -12 3 -28 -17 -17 -28 -15 -21 6 5 13 -1
11 -23 -8 -15 -14 -34 -32 -41 -40 -7 -8 -13 -11 -13 -6 0 5 -8 2 -17 -5 -10
-7 -7 -1 6 14 39 43 14 31 -50 -24 -33 -28 -59 -45 -59 -39 0 7 8 19 18 27 16
14 16 14 -1 9 -12 -4 -17 -2 -14 6 2 7 15 12 29 10 17 -1 34 9 58 35 19 21 25
29 13 19 -21 -17 -23 -18 -29 -2 -6 15 -12 13 -43 -16 -20 -19 -45 -41 -55
-49 -18 -13 -19 -12 -13 4 3 9 2 17 -4 17 -6 0 -5 9 2 23 11 19 11 21 -3 9
-19 -15 -34 0 -22 21 4 6 -28 -23 -71 -65 -43 -43 -83 -74 -89 -71 -6 3 -8 3
-4 -2 4 -4 2 -15 -4 -24 -13 -17 49 35 69 58 7 8 16 11 20 7 4 -4 -10 -23 -32
-43 -22 -19 -31 -30 -20 -25 31 15 68 59 61 71 -4 6 8 24 26 40 30 27 34 29
45 14 11 -14 9 -21 -9 -40 -17 -18 -24 -21 -37 -11 -13 10 -14 10 -5 -1 9 -10
4 -20 -23 -45 -31 -28 -33 -32 -14 -33 11 -1 23 2 26 8 4 5 11 9 16 9 6 0 7
-4 4 -10 -14 -23 21 -8 52 22 24 24 36 29 44 21 6 -6 19 -9 28 -5 14 5 14 4 1
-12 -8 -11 -16 -14 -18 -7 -6 17 -27 13 -47 -9 -10 -11 -13 -20 -7 -20 7 0 12
5 12 10 0 6 9 10 21 10 11 0 18 -3 16 -7 -3 -5 35 -8 84 -9 49 0 89 3 89 8 0
5 -12 6 -27 4 -20 -4 -23 -2 -15 6 25 25 11 30 -15 7 l-28 -24 25 30 c40 48
43 51 37 33 -4 -10 -2 -18 4 -18 6 0 7 -5 3 -12 -11 -17 47 25 75 55 12 14 20
31 16 37 -8 13 10 37 39 52 18 9 17 6 -5 -18 -28 -30 -30 -66 -3 -43 8 6 12
15 9 19 -2 4 4 15 15 25 13 11 20 14 20 6 0 -7 5 -9 10 -6 6 3 10 11 10 16 0
6 -4 7 -10 4 -15 -9 -12 2 6 30 12 19 20 23 34 15 9 -5 21 -6 26 -2 5 4 0 -3
-10 -15 -11 -13 -14 -23 -9 -23 17 0 45 48 32 55 -7 5 -6 11 2 21 8 10 8 14 1
14 -6 0 -10 6 -8 13 1 6 1 9 -1 5 -11 -19 -23 -6 -13 12 8 15 8 25 0 38 -10
15 -10 15 -5 -3z m-55 -60 c-13 -14 -26 -23 -28 -20 -3 3 5 16 18 30 13 14 26
23 28 20 3 -3 -5 -16 -18 -30z m49 23 c-3 -27 1 -39 13 -32 7 4 8 3 4 -5 -4
-6 -2 -18 4 -26 10 -12 8 -13 -9 -10 -12 2 -25 6 -30 9 -5 3 -14 -1 -21 -9 -7
-8 -17 -15 -22 -15 -7 0 -6 5 1 13 6 8 8 17 4 21 -4 3 6 20 22 36 32 33 37 36
34 18z m-152 -165 c-25 -26 -48 -45 -51 -42 -3 2 16 26 41 52 25 26 48 45 51
42 3 -3 -15 -27 -41 -52z m-152 -2 c-2 -5 -14 -11 -26 -14 -20 -5 -20 -5 -4
13 17 18 41 18 30 1z m105 -11 c-6 -11 -15 -20 -20 -20 -6 0 -10 -5 -10 -11 0
-5 4 -8 9 -5 5 4 11 1 13 -5 2 -6 16 1 31 15 26 24 37 31 37 23 0 -2 -19 -21
-41 -42 -23 -22 -39 -32 -36 -23 11 33 -19 25 -62 -16 -26 -24 -41 -33 -37
-23 4 13 2 17 -6 14 -7 -2 -12 -9 -11 -14 1 -5 -5 -10 -13 -10 -9 0 -1 15 23
40 30 32 32 36 9 19 -16 -12 -32 -20 -35 -16 -10 10 43 44 61 38 10 -3 30 7
50 25 38 35 53 39 38 11z m-217 -75 c-21 -19 -44 -34 -50 -35 -23 0 -14 15 17
28 17 8 30 18 30 24 0 6 -8 4 -18 -5 -10 -10 -23 -17 -29 -17 -5 0 -18 -9 -28
-20 -10 -11 -23 -20 -29 -20 -33 0 82 76 117 78 l29 1 -39 -34z"/>
<path d="M2932 2977 c-9 -11 -8 -13 6 -12 19 1 29 18 14 23 -5 1 -14 -3 -20
-11z"/>
<path d="M2680 2775 c-13 -14 -21 -25 -17 -25 3 0 17 11 31 25 14 14 22 25 17
25 -4 0 -18 -11 -31 -25z"/>
<path d="M2220 3049 c0 -5 5 -7 10 -4 6 3 10 8 10 11 0 2 -4 4 -10 4 -5 0 -10
-5 -10 -11z"/>
<path d="M2805 3030 c-10 -11 -14 -20 -9 -20 5 0 17 9 27 20 9 11 13 20 8 20
-4 0 -16 -9 -26 -20z"/>
<path d="M2810 2997 l-25 -32 32 25 c31 24 41 41 26 39 -5 0 -19 -14 -33 -32z"/>
<path d="M3463 2989 c-6 -6 -9 -17 -7 -24 3 -7 -7 -20 -21 -29 -15 -10 -24
-20 -21 -24 4 -3 20 8 37 24 31 28 31 29 15 3 -15 -24 -15 -27 -1 -32 8 -4 15
-12 15 -19 0 -9 -3 -9 -10 2 -5 8 -11 12 -14 9 -3 -2 -1 -11 4 -19 7 -11 11
-11 24 -1 12 10 13 18 5 33 -7 13 -7 18 -1 14 20 -12 22 11 2 29 -10 9 -16 23
-13 31 6 17 1 18 -14 3z"/>
<path d="M2160 2979 c0 -5 5 -7 10 -4 6 3 10 8 10 11 0 2 -4 4 -10 4 -5 0 -10
-5 -10 -11z"/>
<path d="M2196 2954 c-21 -19 -36 -37 -34 -39 2 -3 22 13 43 35 48 50 43 52
-9 4z"/>
<path d="M2230 2949 l-45 -41 42 32 c38 28 60 50 51 50 -2 0 -23 -18 -48 -41z"/>
<path d="M2811 2970 c-14 -12 -18 -20 -10 -20 8 0 20 9 27 20 15 25 13 25 -17
0z"/>
<path d="M1409 2953 c-13 -15 -16 -22 -7 -14 9 7 21 10 25 8 5 -3 9 3 9 14 0
10 -1 19 -1 19 -1 0 -12 -12 -26 -27z"/>
<path d="M2119 2943 c-13 -16 -12 -17 4 -4 9 7 17 15 17 17 0 8 -8 3 -21 -13z"/>
<path d="M2129 2924 c-21 -22 -21 -24 -4 -18 20 7 20 7 0 -17 l-20 -24 22 19
c13 10 20 23 17 28 -3 5 0 15 6 23 21 25 5 17 -21 -11z"/>
<path d="M2996 2914 c-21 -26 -31 -32 -37 -22 -4 7 -3 18 3 25 8 10 6 13 -5
13 -8 0 -17 -7 -21 -15 -3 -8 0 -15 6 -15 6 0 3 -9 -7 -20 -10 -11 -25 -19
-34 -18 -9 2 -15 -3 -13 -11 4 -18 -30 -55 -38 -41 -3 5 -25 -9 -48 -33 -30
-31 -39 -46 -32 -57 5 -8 13 -11 17 -6 4 5 3 11 -4 13 -8 3 1 18 22 39 34 34
58 47 35 19 -7 -9 -11 -18 -8 -21 3 -3 20 13 38 36 17 22 36 40 42 40 5 0 -8
-20 -29 -45 -24 -28 -44 -42 -54 -39 -9 2 -22 -2 -29 -11 -15 -18 1 -20 18 -3
9 9 12 9 12 -2 0 -9 5 -8 20 5 25 22 27 9 3 -18 -15 -15 -15 -19 -3 -17 27 4
41 0 35 -9 -3 -5 1 -15 8 -23 8 -7 12 -19 9 -27 -3 -9 0 -11 7 -6 8 4 12 2 10
-6 -3 -24 1 -43 11 -59 9 -13 11 -13 20 0 8 13 10 13 10 -2 0 -9 -6 -18 -12
-21 -7 -2 -9 -8 -5 -13 5 -5 21 7 38 26 15 19 29 32 29 28 0 -4 -14 -23 -31
-42 -28 -32 -29 -37 -17 -60 l13 -26 29 25 c32 27 45 33 27 12 -6 -8 -7 -18
-3 -22 4 -5 2 -5 -4 -2 -18 10 -47 -28 -39 -52 3 -12 11 -18 17 -15 6 4 8 2 5
-3 -4 -6 0 -31 9 -56 l15 -45 124 -1 124 -2 -20 53 c-10 29 -19 54 -19 57 0 2
-8 -3 -17 -10 -16 -13 -17 -12 -4 4 12 15 10 26 -14 87 -15 38 -32 67 -36 64
-5 -3 -6 2 -3 11 5 13 1 15 -25 10 -30 -5 -31 -5 -14 13 12 12 21 15 26 8 11
-14 4 10 -30 96 -15 39 -30 65 -36 61 -6 -4 -8 0 -4 11 7 18 -41 146 -54 146
-5 0 -6 7 -3 15 9 22 2 18 -30 -21z m12 -51 c-18 -19 -34 -29 -36 -23 -2 5 -8
8 -13 5 -5 -4 -6 2 -2 12 6 16 5 17 -11 3 -17 -14 -17 -15 3 -24 12 -5 21 -14
21 -19 0 -6 10 -2 23 9 12 11 31 26 42 34 18 14 19 14 6 -2 -12 -16 -11 -19 9
-26 19 -7 20 -9 6 -21 -14 -11 -16 -11 -16 5 0 14 -9 9 -40 -21 -23 -22 -36
-41 -30 -43 5 -2 7 -9 4 -14 -4 -7 -2 -8 5 -4 6 4 9 11 6 15 -2 5 7 18 20 31
22 21 25 21 31 6 6 -16 8 -16 27 1 19 18 20 17 8 -4 -9 -18 -9 -23 0 -23 8 0
6 -7 -4 -18 -10 -10 -14 -21 -11 -25 4 -3 15 4 26 16 l19 22 -17 -27 c-10 -17
-12 -28 -5 -28 6 0 11 5 11 10 0 6 5 10 12 10 9 0 9 -3 1 -11 -6 -6 -9 -17 -7
-24 3 -7 0 -16 -7 -21 -8 -5 -10 -3 -5 5 5 7 0 18 -10 26 -17 13 -25 8 -83
-48 -35 -34 -61 -57 -57 -50 3 6 2 14 -4 18 -7 4 -7 13 0 26 6 11 15 17 19 15
4 -3 25 12 45 33 31 31 35 39 21 45 -9 3 -14 2 -11 -3 3 -5 -2 -15 -11 -22
-12 -10 -14 -10 -9 -1 13 21 -3 13 -32 -16 -15 -15 -19 -18 -9 -7 26 33 20 41
-10 14 -15 -13 -22 -16 -14 -7 13 18 6 42 -10 32 -5 -3 -7 -9 -4 -14 3 -5 1
-11 -4 -14 -12 -8 -8 13 8 44 l14 25 -27 -24 c-42 -39 -30 -9 14 34 22 21 40
44 40 50 -1 5 -16 -7 -34 -27 -42 -48 -56 -49 -19 -2 15 20 28 43 29 52 3 19
23 32 40 25 6 -2 20 7 31 20 13 19 21 22 31 14 10 -8 6 -17 -20 -44z m37 -193
c-3 -5 0 -10 7 -10 9 -1 7 -5 -5 -14 -10 -8 -15 -20 -11 -29 3 -8 0 -18 -7
-23 -9 -5 -11 -2 -6 9 3 9 -1 18 -10 21 -14 6 -13 10 7 31 24 26 36 33 25 15z
m76 -18 c-5 -10 -18 -25 -27 -33 -11 -9 -9 -2 6 19 26 35 36 42 21 14z m-41
-6 c0 -2 -8 -10 -17 -17 -16 -13 -17 -12 -4 4 13 16 21 21 21 13z m-98 -48
c-7 -7 -12 -8 -12 -2 0 6 3 14 7 17 3 4 9 5 12 2 2 -3 -1 -11 -7 -17z m125 4
c-19 -21 -23 -47 -5 -36 7 4 8 3 4 -5 -4 -6 -11 -9 -16 -6 -4 3 -13 -2 -20
-10 -7 -8 -18 -15 -24 -15 -6 0 -3 5 7 11 24 14 23 33 -2 20 -10 -6 -21 -7
-25 -4 -3 4 -21 -7 -39 -23 l-32 -29 34 37 c20 21 38 33 41 28 4 -6 22 2 46
19 46 35 53 38 31 13z m-37 4 c0 -2 -8 -10 -17 -17 -16 -13 -17 -12 -4 4 13
16 21 21 21 13z m70 -40 c0 -2 -8 -10 -17 -17 -16 -13 -17 -12 -4 4 13 16 21
21 21 13z m-120 -29 c0 -2 -12 -14 -27 -28 l-28 -24 24 28 c23 25 31 32 31 24z
m153 -52 c-21 -28 -30 -31 -30 -10 0 8 4 12 8 10 3 -3 12 2 19 10 20 24 22 17
3 -10z m-43 -14 c0 -4 -26 -29 -57 -55 l-58 -48 53 50 c49 46 73 81 35 51 -16
-13 -17 -12 -4 3 12 17 31 16 31 -1z m-76 1 c3 -5 -1 -9 -9 -9 -8 0 -12 4 -9
9 3 4 7 8 9 8 2 0 6 -4 9 -8z m-34 -6 c0 -2 -8 -10 -17 -17 -16 -13 -17 -12
-4 4 13 16 21 21 21 13z m120 -20 c0 -2 -8 -10 -17 -17 -16 -13 -17 -12 -4 4
13 16 21 21 21 13z m66 -8 c4 -7 3 -10 -1 -5 -5 4 -18 -1 -29 -10 -21 -18 -21
-18 -2 5 22 26 23 26 32 10z m44 -92 c0 -2 -8 -10 -17 -17 -16 -13 -17 -12 -4
4 13 16 21 21 21 13z"/>
<path d="M2991 2875 c-13 -14 -19 -25 -14 -25 5 0 20 11 33 25 13 14 19 25 14
25 -5 0 -20 -12 -33 -25z"/>
<path d="M2995 2820 c-10 -11 -22 -17 -27 -14 -17 11 -47 -26 -44 -54 2 -19 9
-27 24 -28 17 -1 20 2 12 15 -7 12 1 26 33 59 22 23 36 42 31 42 -6 0 -19 -9
-29 -20z m-25 -23 c0 -2 -10 -12 -22 -23 l-23 -19 19 23 c18 21 26 27 26 19z"/>
<path d="M3004 2768 c-10 -12 -13 -18 -6 -14 7 4 12 2 12 -5 0 -8 5 -7 17 2
15 12 16 12 10 -3 -4 -12 -2 -15 9 -11 20 7 17 21 -6 28 -11 4 -18 11 -15 16
11 17 -2 9 -21 -13z"/>
<path d="M2982 2670 c-28 -27 -48 -51 -44 -54 5 -3 32 19 62 49 65 68 54 72
-18 5z"/>
<path d="M3019 2643 c-13 -16 -12 -17 4 -4 9 7 17 15 17 17 0 8 -8 3 -21 -13z"/>
<path d="M1409 2893 l-24 -28 28 24 c25 23 32 31 24 31 -2 0 -14 -12 -28 -27z"/>
<path d="M2678 2903 c7 -3 16 -2 19 1 4 3 -2 6 -13 5 -11 0 -14 -3 -6 -6z"/>
<path d="M2718 2903 c6 -3 10 -8 8 -12 -3 -4 -1 -13 3 -19 6 -10 11 -9 21 3 9
11 9 15 1 15 -7 0 -10 4 -7 8 2 4 -5 8 -17 9 -12 0 -16 -1 -9 -4z"/>
<path d="M2070 2890 c0 -5 5 -10 11 -10 5 0 7 5 4 10 -3 6 -8 10 -11 10 -2 0
-4 -4 -4 -10z"/>
<path d="M2149 2883 c-13 -16 -12 -17 3 -5 9 8 23 10 29 6 8 -4 9 -3 5 4 -10
17 -21 15 -37 -5z"/>
<path d="M2335 2870 c-10 -11 -23 -20 -30 -20 -6 0 -22 -11 -35 -25 -13 -14
-18 -25 -12 -25 6 0 16 9 22 20 6 11 17 20 24 20 7 0 23 11 36 25 13 14 21 25
18 25 -3 0 -13 -9 -23 -20z"/>
<path d="M2405 2881 c-3 -5 -1 -13 5 -16 14 -9 1 -24 -83 -97 -37 -32 -64 -58
-60 -58 5 0 17 7 27 15 15 11 21 12 30 2 6 -7 10 -10 9 -8 -2 2 2 10 9 18 9
11 7 12 -8 7 -10 -4 2 14 27 39 50 50 65 58 54 30 -3 -10 12 0 34 22 23 21 41
41 41 44 0 3 -13 -8 -30 -24 -16 -16 -33 -25 -37 -22 -3 4 3 16 15 27 12 12
22 24 22 27 0 3 -9 -2 -20 -12 -18 -16 -25 -14 -21 8 1 10 -7 9 -14 -2z"/>
<path d="M2590 2860 c-19 -17 -30 -30 -24 -30 6 0 23 14 39 30 36 38 30 38
-15 0z"/>
<path d="M2225 2859 c-4 -6 -5 -12 -2 -15 2 -3 7 2 10 11 7 17 1 20 -8 4z"/>
<path d="M2076 2844 c-3 -8 -11 -12 -17 -8 -8 5 -9 3 -5 -5 6 -9 13 -8 27 5
21 19 23 24 10 24 -5 0 -12 -7 -15 -16z"/>
<path d="M2225 2818 l-40 -43 45 40 c25 22 47 41 49 43 2 1 0 2 -5 2 -6 0 -28
-19 -49 -42z"/>
<path d="M2125 2840 c-3 -5 -2 -10 4 -10 5 0 13 5 16 10 3 6 2 10 -4 10 -5 0
-13 -4 -16 -10z"/>
<path d="M2295 2805 c-27 -24 -47 -44 -44 -45 3 0 25 18 49 39 25 22 48 37 54
34 5 -3 6 -1 2 5 -9 15 -3 18 -61 -33z"/>
<path d="M2193 2828 c-20 -26 -26 -41 -15 -34 12 7 36 46 29 46 -3 0 -9 -6
-14 -12z"/>
<path d="M2076 2815 c-11 -8 -15 -15 -10 -15 6 0 19 7 30 15 10 8 15 14 9 14
-5 0 -19 -6 -29 -14z"/>
<path d="M2495 2819 c-12 -19 5 -23 22 -6 16 16 16 17 1 17 -9 0 -20 -5 -23
-11z"/>
<path d="M2137 2813 c-4 -3 -7 -11 -7 -17 0 -6 5 -5 12 2 6 6 9 14 7 17 -3 3
-9 2 -12 -2z"/>
<path d="M2295 2772 c-27 -25 -45 -43 -39 -41 15 5 97 80 92 84 -1 2 -25 -17
-53 -43z"/>
<path d="M1426 2773 c-6 -14 -5 -15 5 -6 7 7 10 15 7 18 -3 3 -9 -2 -12 -12z"/>
<path d="M2072 2769 c-10 -16 -17 -18 -25 -10 -14 14 -27 14 -27 1 0 -5 4 -9
9 -7 5 1 8 -2 8 -8 -1 -5 -8 -9 -16 -8 -10 1 -10 -2 -2 -10 8 -8 21 -2 49 26
20 20 32 37 27 37 -6 0 -16 -10 -23 -21z"/>
<path d="M2220 2781 c0 -7 -27 -20 -52 -25 -5 0 -8 -5 -9 -9 -1 -16 8 -17 21
-2 7 8 18 15 24 15 6 0 20 7 30 15 17 13 18 15 3 15 -9 0 -17 -4 -17 -9z"/>
<path d="M2385 2780 c-3 -6 1 -7 9 -4 18 7 21 14 7 14 -6 0 -13 -4 -16 -10z"/>
<path d="M1392 2747 c-8 -9 -8 -17 0 -27 8 -12 9 -12 4 2 -6 20 10 34 17 16 4
-9 6 -10 6 -1 1 18 -15 24 -27 10z"/>
<path d="M2086 2752 c-3 -6 -1 -14 5 -17 15 -10 25 3 12 16 -7 7 -13 7 -17 1z"/>
<path d="M2199 2733 c-13 -16 -12 -17 4 -4 9 7 17 15 17 17 0 8 -8 3 -21 -13z"/>
<path d="M1411 2706 c-13 -14 -18 -26 -12 -30 5 -4 12 -2 16 4 3 5 3 10 -1 10
-4 0 1 9 11 20 26 28 13 25 -14 -4z"/>
<path d="M2041 2707 c-17 -17 -23 -19 -30 -9 -6 11 -10 10 -15 -4 -3 -9 -4
-19 -1 -22 3 -3 5 0 5 6 0 6 6 9 14 6 8 -3 17 -1 20 4 7 11 46 4 46 -8 0 -4
-11 -15 -25 -24 -26 -17 -33 -10 -12 14 10 12 9 12 -5 1 -9 -7 -16 -21 -15
-31 1 -15 4 -16 17 -7 41 29 113 98 100 95 -8 -2 -21 -11 -28 -20 -16 -22 -32
-23 -32 -4 0 25 -16 26 -39 3z m29 3 c0 -5 -5 -10 -11 -10 -5 0 -7 5 -4 10 3
6 8 10 11 10 2 0 4 -4 4 -10z"/>
<path d="M2227 2719 c7 -7 15 -10 18 -7 3 3 -2 9 -12 12 -14 6 -15 5 -6 -5z"/>
<path d="M2805 2720 c-3 -5 1 -10 9 -10 9 0 16 5 16 10 0 6 -4 10 -9 10 -6 0
-13 -4 -16 -10z"/>
<path d="M2143 2701 c-27 -23 -30 -33 -5 -24 15 6 15 4 -2 -15 -11 -12 -14
-22 -8 -22 6 0 13 6 15 13 3 7 6 5 6 -5 1 -16 -10 -22 -31 -19 -4 0 -5 -5 -2
-13 3 -8 -9 -22 -28 -34 l-33 -21 -17 22 -18 22 0 -22 c0 -15 6 -23 17 -23 13
0 11 -6 -12 -30 -15 -16 -33 -26 -38 -23 -6 4 -1 14 11 24 22 17 31 36 12 24
-6 -4 -7 1 -3 12 4 13 3 15 -5 8 -6 -5 -12 -17 -14 -25 -5 -23 -31 -40 -44
-29 -8 6 -14 4 -18 -7 -4 -9 -4 -19 -1 -22 3 -3 5 0 5 6 0 7 4 12 10 12 5 0 7
-7 4 -15 -4 -8 -12 -15 -20 -15 -8 0 -14 -4 -14 -10 0 -15 16 -12 30 5 9 11
17 12 33 3 19 -10 19 -12 4 -23 -12 -9 -14 -14 -5 -23 7 -7 9 -12 5 -12 -3 0
-2 -12 4 -27 8 -22 6 -30 -12 -50 -13 -12 -27 -23 -33 -23 -5 0 3 14 19 30 29
31 29 31 7 37 -25 6 -27 13 -9 32 10 11 8 11 -10 0 -18 -10 -24 -10 -37 0 -14
11 -16 11 -18 -5 0 -11 -2 -24 -2 -30 -1 -6 -7 -18 -14 -27 -9 -10 -10 -17 -2
-22 6 -3 8 -10 6 -13 -2 -4 13 -7 34 -7 31 0 47 8 77 35 20 19 41 34 45 32 5
-1 11 5 14 13 3 8 10 13 14 10 4 -3 16 7 25 21 12 19 19 23 25 14 5 -8 11 -1
19 21 6 18 9 35 6 37 -3 3 -5 0 -5 -6 0 -7 -4 -12 -10 -12 -15 0 -6 37 14 59
10 11 23 18 29 14 6 -4 8 0 4 10 -3 10 -2 17 3 17 6 0 10 5 10 11 0 5 -4 7
-10 4 -5 -3 -10 -1 -10 5 0 7 -7 5 -16 -4 -26 -26 -38 -18 -13 9 26 27 44 32
53 13 3 -7 3 -2 0 11 -4 17 -3 21 6 16 8 -5 7 0 -2 14 -7 12 -18 21 -25 21
-18 0 -16 10 5 26 9 7 13 13 7 13 -5 0 -20 -8 -32 -18z m32 -40 c3 -5 1 -12
-4 -15 -5 -3 -11 1 -15 9 -6 16 9 21 19 6z m-21 -83 c-16 -28 -48 -58 -63 -58
-11 0 -3 12 21 35 39 36 54 44 42 23z m-44 -6 c0 -10 -38 -42 -49 -42 -5 0
-21 -14 -35 -31 -24 -28 -27 -29 -47 -16 -12 9 -16 18 -10 21 5 4 13 2 16 -4
4 -6 28 8 58 35 51 44 67 53 67 37z m-30 -63 c0 -6 7 -8 16 -5 14 5 15 4 4 -9
-11 -14 -14 -13 -26 2 -13 17 -14 17 -7 -1 4 -13 3 -17 -5 -12 -7 4 -26 -6
-45 -25 -17 -18 -26 -29 -18 -25 9 6 12 5 9 -4 -7 -21 -25 -23 -24 -3 1 10 17
35 36 55 35 37 60 48 60 27z m38 -48 c3 -8 0 -11 -6 -7 -6 4 -26 -7 -43 -24
-18 -16 -38 -30 -45 -30 -8 0 -14 -4 -14 -10 0 -5 -5 -10 -10 -10 -13 0 11 40
25 40 12 1 55 36 55 45 0 4 -6 2 -13 -4 -8 -6 -18 -7 -22 -3 -5 4 -5 2 -1 -5
3 -6 1 -15 -5 -18 -18 -12 -23 4 -6 23 20 22 78 24 85 3z m-212 -78 c-10 -10
-19 5 -10 18 6 11 8 11 12 0 2 -7 1 -15 -2 -18z m40 -7 c3 -8 -4 -24 -15 -35
-26 -26 -32 -27 -24 -3 6 14 4 15 -9 5 -8 -7 -18 -10 -22 -6 -6 7 42 52 57 53
4 0 10 -6 13 -14z"/>
<path d="M1920 2365 c-8 -9 -8 -15 -2 -15 12 0 26 19 19 26 -2 2 -10 -2 -17
-11z"/>
<path d="M1396 2644 c-5 -14 -4 -15 9 -4 17 14 19 20 6 20 -5 0 -12 -7 -15
-16z"/>
<path d="M1979 2650 c-3 -20 -4 -25 -13 -40 -7 -12 -6 -13 5 -2 20 19 31 14
19 -8 -6 -11 -18 -20 -28 -20 -15 0 -15 -2 -2 -10 13 -9 7 -14 -12 -11 -10 1
-10 -13 -2 -22 9 -9 61 64 61 85 0 9 -6 14 -14 11 -9 -4 -11 0 -7 11 3 9 3 16
0 16 -3 0 -7 -4 -7 -10z"/>
<path d="M1405 2618 c-16 -18 -20 -24 -8 -14 12 10 26 16 30 13 5 -3 10 3 10
14 2 23 4 24 -32 -13z"/>
<path d="M2055 2620 c-26 -29 -6 -47 23 -21 18 15 20 20 9 30 -11 8 -18 6 -32
-9z m11 -18 c-18 -16 -18 -16 -6 6 6 13 14 21 18 18 3 -4 -2 -14 -12 -24z"/>
<path d="M1422 2586 c7 -8 15 -12 17 -11 5 6 -10 25 -20 25 -5 0 -4 -6 3 -14z"/>
<path d="M2145 2529 c-4 -6 -5 -12 -2 -15 2 -3 7 2 10 11 7 17 1 20 -8 4z"/>
<path d="M1375 2519 c-4 -5 2 -6 12 -2 17 6 17 5 2 -13 -17 -20 -15 -44 3 -44
7 0 6 5 -1 14 -8 10 -8 16 1 23 26 20 37 23 43 13 3 -6 -4 -14 -17 -19 -15 -7
-17 -10 -7 -10 24 -1 44 25 27 35 -19 12 -57 14 -63 3z"/>
<path d="M1940 2456 c-6 -8 -19 -12 -27 -9 -11 4 -14 2 -9 -5 11 -18 30 -14
44 8 14 23 10 27 -8 6z"/>
<path d="M4595 2420 c-3 -5 -1 -10 4 -10 6 0 11 5 11 10 0 6 -2 10 -4 10 -3 0
-8 -4 -11 -10z"/>
<path d="M1395 2410 c-3 -6 1 -7 9 -4 18 7 21 14 7 14 -6 0 -13 -4 -16 -10z"/>
<path d="M2046 2370 c-45 -48 -65 -63 -50 -37 5 8 2 8 -9 -2 -9 -7 -17 -14
-17 -15 0 -1 22 -2 50 -2 27 -1 47 3 44 8 -3 4 -1 8 4 8 9 0 27 47 24 63 -1 4
3 7 8 7 6 0 10 5 10 10 0 20 -18 9 -64 -40z m44 17 c0 -10 -61 -70 -66 -65 -3
3 10 20 28 37 32 30 38 34 38 28z"/>
<path d="M1375 2370 c-3 -5 -1 -10 4 -10 6 0 11 5 11 10 0 6 -2 10 -4 10 -3 0
-8 -4 -11 -10z"/>
<path d="M1414 2369 c-4 -7 -3 -9 4 -5 5 3 13 0 15 -6 4 -9 6 -10 6 -1 1 17
-16 25 -25 12z"/>
<path d="M1384 2318 l-19 -23 23 19 c21 18 27 26 19 26 -2 0 -12 -10 -23 -22z"/>
<path d="M1389 2293 c-13 -14 -19 -23 -12 -20 6 4 13 2 15 -5 3 -9 6 -9 12 0
4 7 2 12 -5 12 -7 0 -5 8 6 20 10 11 16 20 13 20 -2 0 -15 -12 -29 -27z"/>
<path d="M1411 2256 c-18 -19 -31 -40 -28 -48 4 -8 6 -7 6 5 1 12 6 16 14 11
6 -4 9 -3 4 1 -4 5 5 21 20 37 15 15 25 28 22 28 -3 0 -20 -15 -38 -34z"/>
<path d="M1419 2173 l-24 -28 26 23 c27 24 45 29 33 10 -4 -7 -3 -8 5 -4 12 7
6 26 -8 26 -4 0 -18 -12 -32 -27z"/>
<path d="M1444 2138 l-29 -33 33 29 c17 17 32 31 32 33 0 8 -8 1 -36 -29z"/>
<path d="M1455 2120 c-24 -25 -26 -30 -12 -36 9 -3 15 -9 12 -14 -2 -4 10 -20
27 -36 l31 -29 -19 27 c-10 15 -23 28 -29 28 -5 0 -3 5 5 10 12 8 12 10 1 10
-11 0 -11 3 0 18 11 14 11 15 -1 5 -29 -26 -33 -12 -5 17 16 17 26 30 24 30
-3 0 -18 -13 -34 -30z"/>
<path d="M1510 2089 c0 -5 5 -7 10 -4 6 3 10 8 10 11 0 2 -4 4 -10 4 -5 0 -10
-5 -10 -11z"/>
<path d="M1547 2070 c9 -10 10 -17 1 -27 -6 -7 -8 -16 -5 -19 3 -3 10 3 16 14
8 16 7 23 -7 33 -14 11 -15 11 -5 -1z"/>
<path d="M1523 2055 c0 -8 4 -12 9 -9 5 3 6 10 3 15 -9 13 -12 11 -12 -6z"/>
<path d="M1557 2019 c-10 -11 -23 -17 -29 -13 -7 4 -8 3 -4 -4 8 -14 35 -3 56
22 18 23 -2 18 -23 -5z"/>
<path d="M1581 2006 c-21 -22 -22 -54 -1 -41 4 3 14 -2 21 -11 7 -8 24 -21 39
-29 23 -12 27 -12 27 1 0 8 -6 13 -14 10 -7 -3 -13 -1 -13 4 0 10 12 13 40 11
10 0 11 1 2 5 -6 3 -9 11 -5 17 4 6 -7 1 -24 -11 -17 -12 -33 -19 -36 -16 -7
8 18 34 32 34 5 0 13 4 16 10 8 14 -26 1 -47 -18 -11 -9 -18 -11 -18 -4 0 6 5
14 10 17 6 3 10 11 10 17 0 6 -12 1 -26 -13 -26 -23 -26 -23 -15 -2 6 12 19
27 29 32 9 6 12 11 6 11 -6 0 -21 -11 -33 -24z"/>
<path d="M1696 1941 l-20 -26 22 19 c12 10 28 16 37 13 21 -9 19 0 -2 12 -14
7 -22 3 -37 -18z"/>
<path d="M1703 1920 c-12 -9 -20 -20 -17 -23 3 -3 15 4 26 15 26 26 20 32 -9
8z"/>
<path d="M1774 1926 c23 -18 29 -56 9 -56 -7 0 -12 3 -12 8 5 29 -2 34 -22 16
-19 -17 -19 -19 -3 -31 9 -7 21 -10 25 -7 5 3 9 1 9 -5 0 -6 12 2 26 16 20 20
28 23 34 12 10 -15 3 -32 -10 -24 -4 3 -14 -3 -21 -13 -13 -16 -13 -16 5 -2
18 14 19 13 12 -5 -6 -18 -5 -17 14 3 12 13 24 21 27 18 3 -3 -2 -12 -11 -21
-15 -15 -14 -35 1 -35 4 0 3 3 0 7 -8 8 22 43 36 43 6 0 3 -8 -6 -18 -23 -26
-21 -34 11 -53 27 -15 30 -15 39 0 6 9 14 13 18 9 4 -4 2 -14 -4 -22 -9 -11
-9 -16 0 -22 7 -4 9 -3 5 4 -3 6 -2 13 4 17 5 3 10 -3 10 -14 0 -26 32 -44 50
-28 10 10 12 8 7 -5 -5 -13 2 -22 21 -32 15 -7 33 -11 40 -9 7 3 11 0 10 -6
-2 -6 15 -22 37 -35 l39 -24 22 29 c11 16 24 26 27 22 4 -3 7 -3 7 0 0 4 -13
13 -30 22 -27 14 -30 14 -40 -5 -6 -11 -16 -20 -22 -20 -6 0 -3 9 6 19 23 26
11 49 -13 27 -10 -9 -21 -13 -24 -10 -4 4 -15 1 -24 -7 -17 -13 -17 -12 -2 6
25 31 34 49 21 41 -7 -4 -12 -3 -12 3 0 5 -20 21 -45 35 -25 13 -43 21 -40 16
3 -4 -2 -11 -11 -14 -24 -9 -27 -7 -14 9 9 11 10 19 3 26 -8 8 -13 7 -17 0 -4
-6 -12 -11 -18 -11 -7 0 -7 5 1 14 9 11 8 15 -6 20 -10 4 -14 4 -10 0 8 -8
-21 -44 -36 -44 -6 0 -2 10 9 23 l19 22 -22 -19 c-13 -11 -23 -14 -23 -8 0 6
9 17 20 25 20 14 20 15 3 22 -10 5 -24 9 -31 11 -8 1 -19 9 -25 17 -7 8 -30
24 -52 36 -22 13 -31 16 -21 7z m46 -30 c0 -3 -4 -8 -10 -11 -5 -3 -10 -1 -10
4 0 6 5 11 10 11 6 0 10 -2 10 -4z m-53 -20 c0 -8 -6 -12 -14 -9 -7 3 -10 9
-7 14 8 14 21 11 21 -5z m213 -76 c0 -5 -5 -10 -11 -10 -5 0 -7 5 -4 10 3 6 8
10 11 10 2 0 4 -4 4 -10z m-45 -10 c-3 -5 -11 -10 -16 -10 -6 0 -7 5 -4 10 3
6 11 10 16 10 6 0 7 -4 4 -10z m69 -32 l-19 -22 28 17 c15 10 27 13 27 7 0 -6
5 -8 12 -4 7 4 8 3 4 -4 -4 -7 -3 -19 2 -28 6 -11 11 -13 16 -5 4 6 2 11 -4
11 -6 0 -8 5 -4 11 4 8 9 7 15 -2 10 -17 -18 -50 -37 -42 -11 4 -12 9 -3 19 9
11 9 14 0 14 -7 0 -9 5 -6 10 3 6 2 10 -4 10 -5 0 -14 -7 -19 -16 -8 -14 -10
-14 -22 1 -12 15 -12 19 5 31 27 20 31 17 9 -8z m133 -76 c-10 -10 -14 -22
-10 -26 4 -4 0 -4 -8 -1 -9 3 -16 12 -16 20 0 8 4 12 8 9 4 -2 10 0 14 6 3 5
11 10 17 10 6 0 4 -8 -5 -18z m51 -38 c-11 -12 -21 -13 -33 -7 -16 9 -15 12 6
26 29 21 51 5 27 -19z"/>
<path d="M2169 1653 c-13 -16 -12 -17 4 -4 9 7 17 15 17 17 0 8 -8 3 -21 -13z"/>
<path d="M1724 1898 l-19 -23 23 19 c12 11 22 21 22 23 0 8 -8 2 -26 -19z"/>
<path d="M2216 1639 c-14 -11 -26 -25 -26 -30 0 -13 73 -47 89 -41 8 3 11 0 7
-6 -3 -6 -2 -13 3 -16 5 -3 11 1 15 9 3 8 1 15 -5 15 -6 0 -7 5 -4 10 9 14 -8
12 -25 -2 -12 -11 -12 -10 -1 5 8 10 9 17 3 17 -6 0 -13 -4 -17 -10 -3 -5 -12
-7 -21 -3 -22 8 4 35 27 28 26 -8 25 21 0 34 -14 8 -25 6 -45 -10z m13 -18
c-13 -11 -26 -17 -29 -14 -3 2 6 13 20 23 32 24 40 16 9 -9z"/>
<path d="M2286 1615 c-3 -9 -2 -13 3 -10 5 3 13 0 16 -6 4 -5 14 -8 24 -5 14
5 14 5 1 -6 -29 -24 -18 -57 28 -83 23 -13 42 -20 42 -14 0 5 -5 9 -11 9 -8 0
-8 5 1 15 7 8 17 15 23 15 8 0 8 -3 0 -11 -16 -16 -5 -44 26 -62 21 -12 31
-13 39 -5 16 16 15 31 0 21 -22 -13 -37 -12 -31 3 3 10 0 12 -10 8 -11 -4 -15
0 -12 13 1 10 8 17 15 15 6 -1 8 2 4 9 -4 8 -3 9 4 5 6 -4 8 -14 5 -23 -4 -11
-3 -14 5 -9 8 5 10 1 5 -11 -6 -16 -4 -16 17 2 13 11 20 14 15 6 -6 -11 -4
-13 9 -8 11 4 15 3 11 -4 -4 -6 0 -9 10 -7 10 2 19 -3 21 -10 1 -7 0 -8 -3 -2
-7 15 -23 2 -17 -15 4 -8 11 -12 18 -8 6 4 5 -1 -3 -10 -17 -21 -21 -16 57
-62 54 -31 65 -35 80 -23 15 12 16 11 4 -4 -11 -14 -10 -18 7 -28 17 -9 26 -7
46 7 13 10 25 23 25 28 0 6 -32 29 -72 52 -60 34 -75 39 -94 31 -13 -6 -21
-15 -18 -19 3 -5 -3 -6 -12 -2 -14 5 -12 8 10 20 15 8 24 18 20 24 -4 6 -11 6
-20 -2 -12 -9 -13 -9 -9 3 4 11 -11 25 -52 48 -32 19 -66 33 -76 32 -9 0 -15
3 -12 8 3 5 0 12 -6 16 -7 4 -9 3 -6 -3 8 -12 -16 -24 -35 -19 -7 1 -10 1 -5
-1 4 -3 4 -9 1 -14 -3 -6 -12 -2 -21 8 -8 10 -12 12 -8 6 4 -9 1 -11 -10 -7
-14 6 -14 8 2 21 17 14 17 14 -2 8 -19 -6 -19 -5 -3 11 15 16 44 11 33 -6 -6
-9 20 -21 29 -13 9 10 7 25 -3 19 -5 -3 -11 0 -14 7 -2 6 -23 22 -45 35 -34
19 -41 20 -46 7z m324 -210 c-15 -18 0 -20 20 -2 12 10 12 9 1 -5 -7 -9 -10
-22 -6 -27 3 -6 0 -8 -9 -5 -21 8 -28 34 -15 51 7 7 14 11 17 8 3 -2 -1 -11
-8 -20z m98 -46 c3 -12 2 -12 -6 0 -6 8 -15 10 -22 6 -9 -5 -11 -4 -6 4 10 15
28 10 34 -10z m34 -21 c-14 -14 -54 -19 -46 -6 4 5 12 7 20 4 7 -3 16 -1 19 4
4 6 9 10 13 10 3 0 1 -5 -6 -12z"/>
<path d="M2240 1599 c0 -5 5 -7 10 -4 6 3 10 8 10 11 0 2 -4 4 -10 4 -5 0 -10
-5 -10 -11z"/>
<path d="M2492 1458 c-17 -17 -15 -26 7 -38 25 -13 33 -1 17 28 -9 17 -14 20
-24 10z"/>
</g>
</svg>
